<svg xmlns="http://www.w3.org/2000/svg" width="200" height="112">
  <g fill="none" stroke="#000" stroke-width="2">
    <path d="M 10 100 L 115 100"/>
    <path d="M 10 100 L 62.5 10"/>
    <path d="M 10 100 L 88.64588 54.8265"/>
    <path d="M 62.5 10 L 62.5 100"/>
    <path d="M 62.5 10 L 115 100"/>
    <path d="M 115 100 L 36.35412 54.8265"/>
  </g>

  <g fill="red">
    <circle cx="62.5" cy="10" r="10"/>
    <circle cx="62.5" cy="100" r="10"/>
    <circle cx="10" cy="100" r="10"/>
    <circle cx="88.64588" cy="54.8265" r="10"/>
  </g>

  <g fill="white" stroke="red" stroke-width="4">
    <circle cx="62.5" cy="69.8456" r="10"/>
    <circle cx="115" cy="100" r="10"/>
    <circle cx="36.35412" cy="54.8265" r="10"/>
  </g>

  <g fill="white">
    <circle cx="62.5" cy="69.8456" r="10"/>
    <circle cx="115" cy="100" r="10"/>
    <circle cx="36.35412" cy="54.8265" r="10"/>
  </g>

  <g fill="red" stroke="none">
    <path
      d="m 41.804954, 57.710499 q 0,0.672 -0.224,1.306667 -0.224,0.634667 -0.728,1.250667 -0.485334,0.616 -1.474667,0.989333 -0.989334,0.373334 -2.352,0.373334 h -6.122667 v -13.608001 h 6.066667 q 1.269333,0 2.184,0.373333 0.933333,0.373333 1.381333,0.970667 0.466667,0.578667 0.672,1.138667 0.205334,0.56 0.205334,1.101333 0,0.877333 -0.429334,1.512 -0.429333,0.634667 -1.437333,1.288 2.258667,1.325334 2.258667,3.304 z m -8.101334,-7.354667 v 3.08 h 3.042667 q 1.978666,0 1.978666,-1.530666 0,-1.549334 -1.978666,-1.549334 z m 0,5.413334 v 3.528 h 3.341333 q 2.072,0 2.072,-1.754667 0,-1.773333 -2.072,-1.773333 z"/>

    <path
      d="m 118.2575,97.703823 q -0.52267,-2.445334 -2.912,-2.445334 -1.66133,0 -2.59467,1.269334 -0.93333,1.269333 -0.93333,3.527997 0,2.22134 0.896,3.472 0.91467,1.25067 2.53867,1.25067 1.30666,0 2.09066,-0.70933 0.784,-0.70934 0.91467,-2.016 h 2.72533 q -0.13066,2.33333 -1.69866,3.71466 -1.568,1.36267 -4.10667,1.36267 -2.83733,0 -4.49867,-1.904 -1.66133,-1.92267 -1.66133,-5.208 0,-3.304001 1.68,-5.226668 1.68,-1.922666 4.55467,-1.922666 2.408,0 3.93866,1.288 1.54934,1.288 1.736,3.546667 z" />

    <path
      d="m 65.757501,67.549432 q -0.522667,-2.445333 -2.912,-2.445333 -1.661334,0 -2.594667,1.269333 -0.933333,1.269334 -0.933333,3.528001 0,2.221333 0.896,3.472 0.914666,1.250667 2.538666,1.250667 1.306667,0 2.090667,-0.709334 0.784,-0.709333 0.914667,-2.016 h 2.725334 q -0.130667,2.333334 -1.698667,3.714667 -1.568,1.362667 -4.106667,1.362667 -2.837334,0 -4.498667,-1.904 -1.661334,-1.922667 -1.661334,-5.208001 0,-3.304 1.68,-5.226667 1.680001,-1.922667 4.554667,-1.922667 2.408001,0 3.938667,1.288001 1.549334,1.288 1.736001,3.546666 z" />
  </g>
</svg>
