<svg xmlns="http://www.w3.org/2000/svg" xmlns:xlink="http://www.w3.org/1999/xlink" viewBox="132.396 -0.5 510.428 606.925"><title>Lady Margaret Hall Logo</title><defs><clipPath id="A"><use height="659" width="524" xlink:href="#C" fill="#f0f" x="-89.5" y="1.6"/></clipPath><clipPath id="B"><use height="659" width="524" xlink:href="#C"/></clipPath><path d="M393.76 3.5H142.74v258.714c0 161.08 140 299 251.713 341 118.286-39 251.714-175.92 251.714-337V3.5H393.76z" id="C"/></defs><use height="659" width="524" stroke-miterlimit="10" xlink:href="#C" fill="#fff" stroke="#002147" stroke-width="7" x="-6.8" y="-.5"/><use height="659" width="524" xlink:href="#C" fill="none" x="-6.8" y="-.5"/><g transform="translate(-6.8 -.5)" fill="#002147"><g clip-path="url(#B)"><path d="M441.047 45.326c-.24-.015-.466 0-.72.03l-6.405.907.125.938c.06.874.04 1.74-.094 2.532-.067.396-.16.796-.344 1.156s-.48.723-.97.906c-.467.176-.942.105-1.312-.03s-.7-.33-1-.563c-.6-.465-1.15-1.073-1.656-1.687l-1.313-1.687-2.094.812c-3.766 1.85-8.762 6.247-6.844 8.438 1.842 2.105 8.062-5.217 11.28-4.532s15.204 1.107 16.095-.468c.835-1.477-1.168-6.522-4.75-6.75zm-9.094 1.312c-.853.173-1.692.356-2.5.563.183.27.4.58.78 1.032.455.55.953 1.07 1.345 1.375a1.74 1.74 0 0 0 .28.187c.04-.105.094-.185.126-.375.1-.533.116-1.324.063-2.094-.016-.23-.066-.464-.094-.688zm138.812 52.188c-1.377.066-2.7.502-4.187 1.25-2.55 1.273-5.512 3.447-9.53 6-1.22.773-2.6 1.58-4.033 2.406-1.377 3.8-2.304 8.442-2.5 14.187-.28 8.223 6.704 16.024 6.157 17.53s-9.863 22.336-14.657 24.938-9.3 2.47-11.218 5.344-4.242 6.283-2.188 6.97 10.2 2.342 13.655 2.342 26.062-36.304 30.72-38.906c3.1-1.738 3.27-18.93 3.78-30.812-1.723-4.4-2.1-8.125-3.406-10.97-.905-.215-1.768-.32-2.595-.28zm-116.53 6.718c-.912.27-1.777.622-2.594 1.094-9.725 5.616-21.802 5.066-27.28 13.97s-.417 13.414-4.25 19.03-5.605 8.634-3.688 10.688 2.473 6.442 3.843 6.03 1.927-4.648 3.844-4.374 4.5-.4 4.5-1.094.417-14.1 2.468-19.312-1.104-9.6 33-8.094c4.883-.073 8.318-.295 10.75-.625-12.025-3.155-16.762-10.477-20.594-17.313z"/><path d="M455.015 18.326c-11.606.048-13.455 6.556-19.687 8.78-7.67 2.74-16.834 5.857-17.656 7.5-.418.838.07 1.532.625 2.188l.156-.218c.377-.565.718-.57 1.094-.688s.796-.2 1.25-.25c.908-.1 1.93-.118 2.843.22.157.057.325.134.532.343s.388.73.28 1.094a.99.99 0 0 1-.437.594 2.138 2.138 0 0 1-.375.25c-.475.23-1.016.35-1.625.5-1.217.3-2.562.53-2.562.53l-.25.033c-.288 1.84-.443 6.352 5.844 8.282 6.917 2.124 17.687-2.666 17.687 1.03s-16.726 3.067-15.22 6.97 9.716-2.04 19.44 2 1.393 35.47 7.968 47.25c4.02 7.206 8.58 14.696 21.718 17.562l-.062-1.468c-.458-.468-6.618-6.8-9.625-14.782-1.56-4.135-2.2-8.7-.47-12.937s5.834-7.976 13.314-10.5l.656 1.906c-7.13 2.407-10.646 5.74-12.125 9.344s-.954 7.646.5 11.5c2.907 7.708 9.47 14.375 9.47 14.375l.25.28.03.376s.678 13.404.906 27.03c.114 6.815.103 13.686-.156 19-.13 2.66-.307 4.917-.594 6.626-.143.855-.315 1.567-.53 2.157s-.42 1.13-1.095 1.47c-1.894.946-5.562 2.54-8.47 4.53-1.453.996-2.7 2.092-3.406 3.157-.604.9-.762 1.7-.594 2.562 1.846.702 3.76.676 5.594.28 1.987-.428 3.702-1.2 5.188-1.28.275-.017 1.353-.298 2.593-.782a31.828 31.828 0 0 0 4.094-1.937c1.388-.8 2.707-1.7 3.624-2.593s1.37-1.767 1.375-2.344c.024-2.146.498-4.795 1.155-7.22s1.438-4.557 2.438-5.842c-.086.1.07-.112.187-.468a21.78 21.78 0 0 0 .407-1.5c.3-1.227.644-2.897 1-4.875.7-3.956 1.463-9.104 2.03-14.375s.944-10.675.907-15.063c-.018-2.194-.13-4.124-.375-5.657s-.642-2.655-1-3.125l1.593-1.22c.748.98 1.105 2.345 1.375 4.033.013.08.02.17.03.25 5.046-.38 10.734-1.118 17.22-2.312 44.65-8.218 48.494-26.037 60-22.75 3.22 6.3 1.288 15.558 15.875 27.063s18.974 8 20.687 11.844.77 25.142-.875 26.375c-4.247.273-15.145 4.313-8.843 7.874s15.87 2.465 19.156 0 8.225-30.122 4.937-35.875-6.644-8.792-9.656-16.188-4.852-28.2-8.688-34.5c-.564-.928-1.088-1.844-1.594-2.72 10.05.13 25.693-12.06 15.437-31.936-22.05-37.528-57.67-21.647-57.53-18.907s4.475 1.52 10.405 1.093c27.803-1.917 38.085 18.235 38.907 27s-6.852 12.313-10.688 12.313-12.063-2-12.063-2a84.311 84.311 0 0 0-4.25-1.563c-16.367-5.48-88.2 5.685-97.844-2.875-4.153-3.68-5.097-11.856-6.47-20.312.1 2.1.136 4.574.095 7-.043 2.517-.14 4.992-.28 7s-.28 3.424-.533 4.28c-.426 1.45-1.487 2.832-2.75 4.22s-2.737 2.758-4.125 3.937c-1.117.95-1.307 2-1.437 3.125-.065.568-.088 1.122-.25 1.72s-.585 1.32-1.313 1.624c-.652.272-1.43.235-2.125 0s-1.38-.635-2.156-1.22c-1.55-1.166-3.45-3.04-6.126-5.718-3.1-3.1-3.44-8.634-3.125-13.562a52.87 52.87 0 0 1 .874-6.625c.177-.907.34-1.673.5-2.28s.27-.995.438-1.345c.6-1.284 1.112-2.916.53-5.063a4.755 4.755 0 0 1-2.405-2.407c-.622-1.37-.928-3.023-1.063-4.656s-.104-3.246.063-4.563c.083-.658.195-1.226.343-1.718s.254-.903.782-1.313l1.218 1.563c.028-.022.047-.02.063-.032a2.55 2.55 0 0 0-.125.344c-.1.33-.208.828-.28 1.406-.148 1.158-.186 2.673-.064 4.157s.405 2.934.875 3.97 1.02 1.552 1.687 1.656l.593.093.188.593c.915 2.898.137 5.272-.594 6.813-.005.01-.166.442-.312 1s-.3 1.318-.47 2.187c-.34 1.74-.692 3.988-.843 6.344-.302 4.712.3 9.8 2.53 12.03 2.665 2.666 4.577 4.477 5.938 5.5.68.513 1.224.814 1.594.94s.518.132.687.06c.093-.038.078-.026.155-.3s.116-.8.188-1.44c.144-1.26.503-3.027 2.125-4.405 1.35-1.15 2.8-2.466 3.97-3.75s2.053-2.56 2.3-3.438c.1-.306.3-1.9.44-3.875s.237-4.393.28-6.876.022-5.007-.094-7.093-.37-3.8-.594-4.374c-.754-1.888-1.482-5.073-2.218-8-.37-1.464-.735-2.845-1.094-3.907s-.857-1.85-.813-1.813l.563-.688c-2.3-3.165-5.48-5.516-10.063-6.47-3.9-.808-7.07-1.135-9.75-1.124zm-12.468 11.25c1.084-.028 2.173.103 3.125.468 3.807 1.46 3.074 2.925 3.53 2.47.022-.022.054-.027.063-.032-.188.356-2.417 3.003-6.093 2.844-4.2-.182-5.85-1.195-6.032-1.47s1.032-.452 1.032-1 .337-1.234-1.032-1.53c-1.027-.222 2.154-1.666 5.407-1.75zm-1.24 2.078c0 .252 1.027.525 1.096.914s-1.004.708-.867 1.072 1.574 1.393 2.465.753 1.325-1.05 1.005-1.757-1.393-1.644-2.305-1.484-1.393.114-1.393.502z"/></g><g clip-path="url(#B)"><path d="M187.984 45.326c-.24-.015-.466 0-.72.03l-6.436.907.125.938c.06.874.07 1.74-.063 2.532-.066.396-.16.796-.343 1.156s-.5.723-1 .906c-.468.176-.943.105-1.313-.03s-.668-.33-.97-.563c-.6-.465-1.15-1.073-1.655-1.687a27.076 27.076 0 0 1-1.313-1.72c-.777.26-1.507.542-2.125.845-3.766 1.85-8.762 6.247-6.844 8.438 1.842 2.105 8.093-5.217 11.312-4.532s15.203 1.107 16.094-.468c.836-1.477-1.167-6.522-4.75-6.75zm-9.094 1.312c-.863.175-1.713.353-2.53.563.182.27.4.58.78 1.032.454.55.952 1.07 1.344 1.375.13.1.224.14.313.187.038-.105.093-.185.125-.375.1-.533.084-1.324.03-2.094-.015-.23-.038-.465-.062-.688zm138.813 52.188c-1.37.067-2.697.505-4.188 1.25-2.55 1.273-5.512 3.447-9.53 6-1.218.773-2.598 1.58-4.032 2.406-1.378 3.8-2.305 8.44-2.5 14.187-.28 8.223 6.703 16.024 6.156 17.53s-9.863 22.336-14.657 24.938-9.332 2.47-11.25 5.344-4.242 6.283-2.188 6.97 10.2 2.342 13.657 2.342 26.06-36.304 30.718-38.906c3.112-1.738 3.303-18.93 3.813-30.812-1.73-4.4-2.132-8.125-3.438-10.97-.898-.2-1.74-.32-2.562-.28zm-116.53 6.718c-.916.27-1.806.62-2.625 1.094-9.725 5.616-21.77 5.066-27.25 13.97s-.416 13.414-4.25 19.03-5.605 8.634-3.688 10.688 2.473 6.442 3.843 6.03 1.895-4.648 3.812-4.374 4.532-.4 4.532-1.094.417-14.1 2.468-19.312-1.104-9.6 33-8.094c4.884-.073 8.32-.295 10.75-.625-12.025-3.155-16.76-10.477-20.593-17.313z"/><path d="M201.922 18.326c-11.607.048-13.456 6.556-19.688 8.78-7.67 2.74-16.834 5.857-17.656 7.5-.417.838.094 1.532.656 2.188l.156-.218c.378-.565.72-.57 1.094-.688s.796-.2 1.25-.25c.9-.098 1.906-.107 2.813.22.01.003.02-.005.03 0a1.35 1.35 0 0 1 .532.343 1.31 1.31 0 0 1 .28 1.094c-.106.365-.302.5-.437.594a2.176 2.176 0 0 1-.375.25c-.475.23-1.016.35-1.625.5-1.217.3-2.563.53-2.563.53l-.25.033c-.287 1.84-.442 6.352 5.844 8.282 6.917 2.124 17.656-2.666 17.656 1.03s-16.694 3.067-15.187 6.97 9.714-2.04 19.437 2 1.363 35.47 7.938 47.25c4.023 7.2 8.597 14.7 21.75 17.562l-.063-1.468c-.458-.468-6.618-6.8-9.625-14.782-1.56-4.135-2.24-8.7-.5-12.937s5.864-7.976 13.344-10.5l.656 1.906c-7.13 2.407-10.646 5.74-12.125 9.344s-.953 7.646.5 11.5c2.908 7.708 9.438 14.375 9.438 14.375l.28.28v.376a894.39 894.39 0 0 0 .94 27.03c.113 6.815.1 13.686-.158 19-.13 2.66-.307 4.917-.593 6.626-.144.855-.315 1.567-.532 2.157s-.417 1.13-1.093 1.47c-1.893.946-5.562 2.54-8.47 4.53-1.453.996-2.72 2.092-3.437 3.157-.603.898-.76 1.7-.593 2.562 1.847.704 3.8.677 5.625.28 1.987-.428 3.67-1.2 5.156-1.28.275-.017 1.384-.298 2.625-.782a31.89 31.89 0 0 0 4.094-1.937c1.4-.8 2.707-1.7 3.625-2.593s1.37-1.767 1.375-2.344c.025-2.146.5-4.795 1.156-7.22s1.438-4.557 2.437-5.842c-.085.1.07-.112.188-.468s.256-.887.406-1.5c.3-1.227.645-2.897 1-4.875.7-3.956 1.463-9.104 2.03-14.375s.944-10.675.908-15.063c-.02-2.194-.13-4.124-.375-5.657s-.673-2.655-1.032-3.125l1.594-1.22c.748.98 1.136 2.345 1.405 4.033.013.08.02.17.032.25 5.044-.38 10.733-1.118 17.218-2.312 44.65-8.218 48.463-26.037 59.97-22.75 3.218 6.3 1.318 15.558 15.905 27.063s18.975 8 20.688 11.844.738 25.142-.906 26.375c-4.247.273-15.115 4.313-8.813 7.874s15.87 2.465 19.155 0 8.226-30.122 4.938-35.875-6.644-8.792-9.656-16.188-4.852-28.2-8.688-34.5c-.565-.928-1.1-1.844-1.595-2.72 10.05.13 25.663-12.06 15.407-31.936-22.05-37.528-57.67-21.647-57.532-18.907s4.508 1.52 10.438 1.093c27.803-1.917 38.053 18.235 38.875 27s-6.852 12.313-10.688 12.313-12.03-2-12.03-2a85.407 85.407 0 0 0-4.25-1.563c-16.368-5.48-88.22 5.685-97.876-2.875-4.117-3.65-5.092-11.716-6.438-20.094a105.79 105.79 0 0 1 .093 6.782c-.043 2.517-.17 4.992-.312 7s-.248 3.424-.5 4.28c-.426 1.45-1.487 2.832-2.75 4.22s-2.77 2.758-4.156 3.937c-1.118.95-1.308 2-1.438 3.125-.066.568-.1 1.122-.25 1.72s-.586 1.32-1.313 1.624c-.652.272-1.398.235-2.094 0s-1.38-.635-2.156-1.22c-1.55-1.166-3.48-3.04-6.157-5.718-3.1-3.1-3.408-8.634-3.093-13.562a52.67 52.67 0 0 1 .875-6.625c.177-.907.34-1.673.5-2.28s.27-.995.437-1.345c.608-1.284 1.1-2.916.53-5.063-1.07-.47-1.907-1.308-2.406-2.407-.62-1.37-.928-3.023-1.062-4.656s-.104-3.246.062-4.563c.083-.658.195-1.226.344-1.718s.254-.903.78-1.313l1.22 1.563c.034-.026.047-.02.062-.032-.038.06-.106.18-.156.344-.1.33-.177.828-.25 1.406a20.916 20.916 0 0 0-.094 4.157c.123 1.484.437 2.934.907 3.97s1 1.552 1.656 1.656l.625.093.187.593c.916 2.898.138 5.272-.593 6.813-.005.01-.167.442-.313 1s-.33 1.318-.5 2.187a50.925 50.925 0 0 0-.813 6.344c-.3 4.712.3 9.8 2.53 12.03 2.666 2.666 4.578 4.477 5.938 5.5.68.513 1.224.814 1.594.94s.517.132.687.06c.094-.038.078-.026.156-.3s.115-.8.187-1.44c.144-1.26.504-3.027 2.125-4.405 1.352-1.15 2.8-2.466 3.97-3.75s2.023-2.56 2.28-3.438c.1-.306.3-1.9.438-3.875s.27-4.393.312-6.876.022-5.007-.093-7.093-.4-3.8-.625-4.374c-.755-1.888-1.45-5.073-2.188-8-.37-1.464-.735-2.845-1.094-3.907s-.857-1.85-.813-1.813l.563-.688c-2.297-3.165-5.48-5.516-10.063-6.47-3.9-.808-7.103-1.135-9.78-1.124zm-12.438 11.25c1.084-.028 2.174.103 3.125.468 3.806 1.46 3.073 2.925 3.53 2.47-.257.43-2.422 2.968-6.03 2.812-4.2-.182-5.85-1.195-6.032-1.47s1-.452 1-1 .37-1.234-1-1.53c-1.028-.222 2.154-1.666 5.406-1.75zm36.125 4.5l.937 3.625c-.282-1.227-.58-2.45-.938-3.624zm-37.374-2.422c0 .252 1.027.525 1.096.914s-1.003.708-.866 1.072 1.574 1.393 2.465.753 1.323-1.05 1.003-1.757-1.393-1.644-2.305-1.484-1.393.114-1.393.502z"/></g></g><path transform="translate(82.7 -2.1)" d="M305 158.03L-88.094 546.2-3.53 646.343 305 341.687l308.53 304.657 84.564-100.157zm-64.47 77.064h128.44v6.97c-1.48.018-2.848.092-4.095.28l.47.656c1.51-.79 3.374-.352 4.374 1.03l4.936 6.876c1.104 1.536.755 3.675-.78 4.78l-.126.095.656 1.7h1.156c.904-.004 1.773.354 2.413.993s.998 1.508.994 2.412v8.47c0 1.888-1.516 3.436-3.408 3.436h-1.343l-.5 1.47.655.437c1.577 1.045 2.01 3.17.97 4.75l-4.658 7.032c-.78 1.182-2.186 1.7-3.5 1.467l-.093.313c1.346.613 2.217 2.024 2 3.562l-1.188 8.375c-.206 1.46-1.324 2.574-2.687 2.875v.063c1.16.1 2.243.78 2.78 1.906l3.656 7.657c.802 1.68.088 3.66-1.562 4.5l.562 1.313a9.76 9.76 0 0 1 2-.188c2.53-.007 4.96.995 6.748 2.784s2.79 4.218 2.784 6.748c0 5.275-4.238 9.562-9.532 9.562a9.56 9.56 0 0 1-9.562-9.562c0-3.396 1.768-6.336 4.437-8.032l-.53-1.218c-1.588.434-3.26-.33-3.97-1.813l-3.624-7.624c-.813-1.706-.113-3.75 1.594-4.562l.938-.438-.157-1.344-.436-.062c-1.873-.263-3.14-2.003-2.875-3.875l1.186-8.375c.263-1.872 1.97-3.2 3.844-2.938l.22.032.436-1.313-.5-.3c-1.577-1.043-1.978-3.174-.937-4.75l4.655-7.064c.75-1.137 2.053-1.64 3.313-1.47l.187-.56a3.43 3.43 0 0 1-1.438-2.782v-8.47a3.45 3.45 0 0 1 1.532-2.874l-.126-.313a3.4 3.4 0 0 1-3.906-1.218l-4.97-6.845c-1.074-1.5-.797-3.558.626-4.688l-1.125-1.625c-2.72 1.236-4.56 3.62-5.408 8.188v81.937L344 316.094h4.53v-5.313c-5.653-.01-10.72.01-16.374 0v5.314h5.406l-8.937 17.344-8.938-17.344h5.407v-5.313h-16.906v5.314h5.406l-8.844 17.344-8.844-17.344h5.406v-5.313h-17.187v5.314h5.375l-8.938 17.344-8.906-17.344h5.375v-5.313c-5.654.01-10.438-.01-16.092 0v5.314h4.562l-12.094 17.344V251.5c-.846-4.55-2.65-6.948-5.344-8.188l-1.156 1.657c1.408 1.14 1.682 3.183.625 4.655l-4.968 6.844a3.4 3.4 0 0 1-3.906 1.217l-.125.313c.96.64 1.535 1.72 1.532 2.875v8.47a3.43 3.43 0 0 1-1.437 2.78l.188.563c1.26-.17 2.56.33 3.312 1.468l4.656 7.063c1.043 1.576.642 3.707-.936 4.75l-.5.3.437 1.314.22-.03c1.873-.266 3.58 1.064 3.844 2.936l1.187 8.375c.265 1.872-1.002 3.612-2.874 3.875l-.437.063-.157 1.343.937.438c1.706.813 2.408 2.856 1.594 4.562l-3.625 7.625c-.715 1.496-2.403 2.262-4 1.814l-.5 1.187a9.51 9.51 0 0 1 4.436 8.064 9.56 9.56 0 0 1-9.562 9.562c-5.294 0-9.53-4.287-9.53-9.562a9.5 9.5 0 0 1 9.53-9.53c.67-.008 1.342.054 2 .186l.562-1.313c-1.65-.84-2.365-2.82-1.562-4.5l3.656-7.656c.537-1.126 1.62-1.795 2.78-1.905v-.063c-1.362-.3-2.48-1.415-2.686-2.875l-1.188-8.375c-.216-1.538.653-2.95 2-3.562l-.093-.344c-1.315.253-2.718-.25-3.5-1.437l-4.657-7.033a3.43 3.43 0 0 1 .97-4.75l.655-.437-.5-1.47h-1.342c-1.9 0-3.407-1.547-3.407-3.436v-8.47c-.003-.904.356-1.772.995-2.412s1.508-.997 2.413-.993h1.156l.656-1.7-.156-.092c-1.533-1.107-1.858-3.248-.75-4.782l4.937-6.875c1-1.383 2.864-1.82 4.376-1.03l.47-.656c-1.248-.187-2.613-.263-4.095-.28v-6.97zm19.22 7.812v16.125h16.906v-16.124H259.75zm24.375 0v16.125h16.906v-16.124h-16.905zm24.344 0v16.125h16.905v-16.124H308.47zm24.374 0v16.125h16.875v-16.124h-16.876zm-90.97 3.375c-.072.052-.135.117-.186.2l-2.657 3.686c.202-.002.397.048.595.125l.125.032c.837.32 1.256 1.257.938 2.094l-.72 1.844c.27.122.5.072.688-.188l3.97-5.468c.1-.142.145-.328.093-.5l-.345.5c-.244.353-.62.594-1.04.67s-.857-.02-1.21-.264l-.125-.063c-.353-.244-.594-.62-.67-1.04s.02-.857.264-1.21l.28-.406zm125.907.2l.126.218c.512.735.328 1.74-.406 2.25l-.125.062c-.735.5-1.738.33-2.25-.406l-.344-.5c-.05.172-.016.36.095.5l3.937 5.47c.2.258.442.308.72.186l-.72-1.844c-.32-.837.1-1.775.938-2.094l.125-.03a1.58 1.58 0 0 1 .594-.126l-2.7-3.687zm-130.686 15.28l-.53 1.313c-.32.837-1.258 1.256-2.095.937l-.126-.063c-.362-.14-.66-.407-.844-.75v5.282c0 .342.183.578.53.624l-.28-.906c-.282-.85.18-1.75 1.03-2.032l.157-.062c.85-.282 1.75.18 2.032 1.03l.124.376v-5.75zm135.312 0v5.75l.125-.375c.13-.407.42-.745.802-.94s.825-.226 1.23-.09l.156.06c.407.13.745.42.94.802s.226.825.09 1.23l-.28.906c.347-.046.53-.282.53-.625v-5.283a1.63 1.63 0 0 1-.844.75l-.125.063a1.62 1.62 0 0 1-2.092-.938l-.532-1.312zM259.75 264.94v16.093h16.906V264.94H259.75zm24.375 0v16.093h16.906V264.94h-16.905zm24.344 0v16.093h16.905V264.94H308.47zm24.374 0v16.093h16.875V264.94h-16.876zm-92.78 11.5l.5 1.53a1.64 1.64 0 0 1-1.033 2.063l-.124.032c-.465.154-.95.078-1.344-.156l2.782 4.22c.08.122.176.207.28.25l-.655-2.032c-.282-.854.178-1.775 1.03-2.063l.125-.03a1.57 1.57 0 0 1 .938-.03l-2.438-3.72c-.018-.027-.043-.04-.063-.063zm129.374 0c-.02.023-.045.035-.063.062l-2.438 3.72a1.57 1.57 0 0 1 .938.03l.125.03c.852.288 1.312 1.2 1.03 2.064l-.655 2.03c.105-.04.2-.126.28-.25l2.783-4.218c-.395.234-.88.3-1.344.156l-.125-.03c-.853-.286-1.315-1.208-1.033-2.063l.5-1.532zM237 278.03c-.035.15.018.3.125.47l.094.125-.22-.594zm135.5 0l-.22.595.095-.125c.107-.16.16-.32.125-.47zm-112.75 8.908v16.125h16.906v-16.125zm24.375 0v16.125h16.906v-16.125h-16.905zm24.344 0v16.125h16.905v-16.125H308.47zm24.374 0v16.125h16.875v-16.125h-16.876zm-89.25 4.843c-.095.12-.12.28-.094.47l.938 6.688c.027.2.1.32.218.406l.188-1.688c.093-.892.9-1.53 1.78-1.437l.157.03c.388.04.716.213.97.47l-.5-3.595a1.62 1.62 0 0 1-1.03 1.03l-.126.064c-.85.28-1.75-.182-2.03-1.033l-.47-1.406zm122.312 0l-.47 1.408a1.6 1.6 0 0 1-2.03 1.03l-.125-.062c-.487-.16-.87-.543-1.03-1.03l-.5 3.593c.254-.257.583-.43.97-.47l.155-.03c.9-.094 1.7.544 1.78 1.436l.2 1.688c.117-.085.2-.215.217-.406l.938-6.688c.027-.2 0-.35-.094-.47zm-122 15.2c-.03.04-.07.073-.093.124l-2.907 6.094a.55.55 0 0 0-.03.468l.312-.687c.17-.394.488-.705.887-.864s.844-.152 1.238.02l.125.063c.824.352 1.227 1.302.875 2.125l-.157.406 1.938-4.064a1.63 1.63 0 0 1-.844.156h-.125c-.427-.045-.818-.258-1.088-.592s-.395-.76-.35-1.188l.218-2.063zm121.688 0l.22 2.06c.1.9-.55 1.7-1.44 1.783h-.124c-.3.03-.6-.04-.844-.157l1.938 4.063-.156-.408c-.352-.823.052-1.773.875-2.125l.125-.062c.823-.35 1.773.02 2.125.844l.312.686c.06-.154.048-.325-.03-.47l-2.907-6.092c-.025-.05-.065-.085-.094-.125zm-128.75 15.436c-3.1 0-5.438 2.444-5.438 5.438s2.322 5.437 5.438 5.437 5.437-2.442 5.437-5.436c0-1.7-.75-3.22-1.968-4.22l-.5 1.188c-.17.394-.49.704-.887.863s-.844.152-1.238-.02l-.125-.03c-.394-.17-.704-.49-.863-.888s-.15-.844.02-1.238l.468-1.062c-.1-.006-.23-.032-.344-.032zm135.812 0c-.113 0-.233.025-.344.03l.47 1.064c.17.394.177.84.018 1.237s-.47.718-.862.888l-.125.03c-.824.352-1.805-.02-2.157-.843l-.5-1.156c-1.237 1.038-1.947 2.573-1.937 4.188 0 2.994 2.32 5.437 5.436 5.437s5.438-2.442 5.438-5.436-2.327-5.438-5.438-5.438z" clip-path="url(#A)" fill="#002147"/><g clip-path="url(#B)" transform="translate(-6.8 -.5)" fill="#002147"><path d="M394.203 400.544a19.35 19.35 0 0 0-19.344 19.344c0 2.88.652 5.608 1.78 8.063 2.68-1.336 5.765-2.312 9.282-2.75a9.789 9.789 0 0 1-1.563-5.312 9.85 9.85 0 0 1 9.843-9.844c5.43 0 9.844 4.412 9.844 9.844 0 1.956-.578 3.78-1.563 5.313 3.517.438 6.602 1.414 9.28 2.75a19.235 19.235 0 0 0 1.783-8.062c0-10.68-8.667-19.344-19.344-19.344zm-4.188 25.406c-19.912 0-26.065 16.723-31.718 22.376-5.53 5.53-19.12 62.985-19.72 65.53 1.807-1.498 3.86-2.8 6.095-3.905 11.053-5.512 27.133-6.704 48-6.78v-.032h3.093v.03c20.87.078 36.947 1.27 48 6.783 2.236 1.116 4.257 2.408 6.063 3.907-.6-2.546-14.22-60-19.75-65.53-5.653-5.654-11.776-22.376-31.688-22.376zm3.657 78.157v.03c-41.413.078-63.73 4.586-65.032 35.845a7.71 7.71 0 0 1 .532-.656c.988-1.086 2.366-2.05 4.093-2.97 3.455-1.835 8.32-3.434 14.313-4.78 11.984-2.693 28.44-4.344 46.625-4.344s34.672 1.65 46.656 4.344c6 1.346 10.857 2.945 14.312 4.78 1.727.92 3.105 1.884 4.093 2.97.2.2.34.435.5.656-1.3-31.26-23.614-35.767-65.03-35.844v-.03h-1.062zm.53 24.093c-36.25 0-65.625 6.604-65.625 14.75 0 .12-.014.255 0 .376.8 7.4 25.918 13.455 58.094 14.28.05-2.7.816-5.147 2.093-7 1.322-1.915 3.236-3.218 5.438-3.218s4.147 1.303 5.47 3.22c1.276 1.85 2.012 4.298 2.06 7 32.7-.84 58.095-7.084 58.095-14.657 0-8.147-29.376-14.75-65.625-14.75zm0 21.188c-1.42 0-2.76.82-3.813 2.344-1.015 1.472-1.674 3.57-1.718 5.906a296.1 296.1 0 0 0 5.53.063l5.532-.062c-.046-2.337-.703-4.434-1.72-5.906-1.05-1.524-2.392-2.344-3.8-2.344zm6.555 8.487a6.556 9.505 0 0 1-6.556 9.505 6.556 9.505 0 0 1-6.556-9.505 6.556 9.505 0 0 1 6.556-9.505 6.556 9.505 0 0 1 6.556 9.505z"/></g></svg>
