<svg xmlns="http://www.w3.org/2000/svg" xmlns:xlink="http://www.w3.org/1999/xlink" viewBox="0 0 1000.125 312.473">
  <title>LMS Logo</title>
  <defs>
    <linearGradient id="c">
      <stop offset="0" stop-color="#a11959"/>
      <stop offset="1" stop-color="#2d2243"/>
    </linearGradient>
    <linearGradient id="b">
      <stop offset="0" stop-color="#458283"/>
      <stop offset="1" stop-color="#1786bb"/>
    </linearGradient>
    <linearGradient id="a">
      <stop offset="0" stop-color="#a11959"/>
      <stop offset="1" stop-color="#1786bb"/>
    </linearGradient>
    <linearGradient xlink:href="#a" id="d" x1="208.304" y1="220.093" x2="222.812" y2="211.716" gradientUnits="userSpaceOnUse"/>
    <linearGradient xlink:href="#b" id="e" x1="122.556" y1="108.924" x2="173.884" y2="70.966" gradientUnits="userSpaceOnUse"/>
    <linearGradient xlink:href="#c" id="f" gradientUnits="userSpaceOnUse" x1="155.264" y1="55.559" x2="159.167" y2="40.991"/>
  </defs>
  <path d="M357.893 282.134c-.097-.097-.176-56.592-.176-125.545V31.221h2.38V282.31h-1.013c-.558 0-1.094-.079-1.19-.176z" fill="#203351"/>
  <g fill="#1786bb">
    <path d="M486.281 281.972c-1.1-.742-1.555-1.597-1.56-2.934-.003-.838.181-1.209 1.023-2.05.897-.898 1.182-1.028 2.253-1.028 1.014 0 1.387.149 2.164.86 2.96 2.713-.561 7.388-3.88 5.152zM548.656 243.155c-3.581.005-6.179.96-8.251 3.033-1.426 1.425-2.1 2.721-2.516 4.842-.807 4.102 1.337 8.237 5.316 10.254l1.387.703-1.5.609c-2.69 1.093-4.524 2.76-5.683 5.162-.622 1.29-.702 1.77-.702 4.234 0 2.45.082 2.95.693 4.233 1.327 2.787 4.873 5.412 8.186 6.062 3.044.597 6.984.112 9.513-1.17 1.808-.915 3.862-2.852 4.622-4.358 2.038-4.034 1.282-8.929-1.836-11.877-1.355-1.281-3.703-2.68-4.5-2.68-.778 0-.396-.404.973-1.032 1.98-.909 3.96-2.99 4.691-4.93.79-2.097.692-5.737-.201-7.458-1.832-3.53-5.642-5.634-10.192-5.627zm-.175 1.764c4.21-.003 6.381 3.187 6.001 8.816-.083 1.237-.353 2.832-.6 3.544-.598 1.723-2.068 3.166-3.624 3.558-1.556.392-2.453.373-3.72-.08-2.022-.72-3.09-2.482-3.635-5.99-.504-3.25.145-6.703 1.554-8.26.846-.936 2.496-1.587 4.024-1.588zm.138 18.106a7.979 7.979 0 0 1 3.103.711c2.783 1.24 3.762 3.439 3.735 8.388-.027 4.746-1.015 6.841-3.77 7.996-1.342.562-4.183.669-5.607.21-1.402-.452-2.847-1.752-3.573-3.215-.433-.871-.508-1.61-.508-4.991 0-3.619.056-4.092.633-5.37 1.097-2.428 3.404-3.775 5.987-3.73zM581.141 243.139c-1.364-.01-2.71.166-3.806.536-3.96 1.337-6.66 4.164-8.842 9.26-1.327 3.1-1.792 5.577-1.937 10.325-.115 3.763-.056 4.75.43 7.144 1.254 6.178 4.476 10.417 8.873 11.676 5.471 1.568 10.993-.92 13.593-6.125 2.342-4.685 1.618-10.674-1.726-14.286-1.826-1.972-3.51-3.042-5.647-3.59-3.334-.854-6.478-.1-8.967 2.148-.558.504-1.108.917-1.221.917-.308 0 .059-5.409.512-7.564 1.201-5.71 3.64-8.38 7.696-8.423 2.5-.028 3.35.383 4.544 2.192 1.236 1.874 1.573 2.134 2.779 2.145 1.254.01 1.805-.555 1.805-1.854 0-1.393-1.096-2.605-3.234-3.576-1.315-.598-3.098-.914-4.852-.925zm-2.501 16.7c.934-.024 1.864.088 2.48.346 1.22.51 2.756 1.922 3.346 3.077 1.25 2.451 1.387 8.945.265 12.526-.747 2.381-2.175 3.98-4.052 4.538-1.614.479-2.361.474-3.765-.024-3.335-1.185-5.119-4.913-5.14-10.745-.02-5.317 1.14-7.776 4.356-9.242.636-.29 1.575-.451 2.51-.476zM602.468 282.304c-2.961-.625-6.14-3.169-6.525-5.223-.334-1.784 1.102-3.125 2.743-2.56.543.188 1.007.786 1.828 2.36.605 1.16 1.46 2.43 1.901 2.824 1.55 1.385 5.156 1.265 7.309-.244 2.563-1.796 3.788-4.67 4.03-9.454.347-6.882-1.48-10.932-5.32-11.791-2.2-.493-3.96.134-5.686 2.023-.743.812-1.35 1.586-1.35 1.72 0 .134-.474.243-1.053.243h-1.054l.12-1.124c.067-.619.248-4.22.403-8.004.155-3.784.344-7.385.42-8.004l.138-1.124h15.284l-.665 1.521c-1.264 2.89-1.115 2.83-7.491 2.933l-5.53.09-.146 2.16c-.08 1.187-.194 3.486-.253 5.107l-.107 2.947 1.356-1.033c4.244-3.235 10.127-2.12 13.696 2.597 1.843 2.436 2.473 4.543 2.475 8.284.003 2.491-.112 3.39-.627 4.96-1.314 4.013-4.312 7.152-7.906 8.28-2.03.637-6.147.9-7.99.512zM429.359 281.899c-1.991-.483-3.731-1.384-5.585-2.894l-1.51-1.23-.361.878a12.288 12.288 0 0 0-.545 1.74c-.168.787-.268.86-1.19.86h-1.008l-.028-6.483-.027-6.483h2.032l.598 2.265c1.854 7.018 6.294 10.576 12.074 9.676 3.83-.596 6.227-2.905 6.64-6.396.4-3.368-1.568-5.879-6.416-8.187-8.749-4.167-9.817-4.752-11.193-6.128-.758-.758-1.748-2.142-2.223-3.106-.807-1.64-.856-1.902-.856-4.654 0-2.82.03-2.972.908-4.59 1.035-1.91 2.401-3.189 4.505-4.218 1.226-.6 1.89-.73 4.141-.813 3.883-.144 6.053.577 8.684 2.887l.946.83.523-1.152c.287-.634.525-1.36.528-1.615.005-.352.229-.463.932-.463h.926v10.583h-.884c-.812 0-.911-.092-1.216-1.124-.944-3.196-3.289-6.133-5.837-7.31-1.694-.784-4.326-1.035-6.029-.577-3.146.847-4.893 4.59-3.526 7.556 1.051 2.283 2.384 3.187 10.62 7.204 5.388 2.627 6.086 3.044 7.251 4.334 1.573 1.74 2.415 3.505 2.785 5.838.956 6.034-2.767 11.549-8.638 12.793-2.228.472-5.023.463-7.021-.021zM380.785 280.657l.083-.86 1.852-.162c2.236-.195 2.607-.339 3.225-1.25.445-.655.485-1.725.562-15.125.045-7.93.005-15.06-.09-15.844-.242-1.997-.883-2.574-3.131-2.815l-1.757-.188v-1.79h14.023c11.033 0 14.026.07 14.04.33.008.183.22 2.458.47 5.058.485 5.026.478 5.07-.776 4.885-.474-.07-.681-.402-1.042-1.674-.886-3.125-2.07-4.98-3.721-5.834-1.03-.533-5.368-.955-8.839-.86l-2.91.08-.07 7.77-.07 7.769 3.51-.111c5.076-.161 5.753-.676 5.757-4.382l.003-1.39h1.852v13.759h-1.776l-.151-2.002c-.16-2.104-.576-3.052-1.58-3.592-.34-.183-2.106-.372-4.135-.441l-3.54-.122.125 7.51c.178 10.704-.044 10.395 7.33 10.24 3.93-.083 4.534-.158 5.785-.72 2.526-1.133 5.105-4.795 5.91-8.395l.318-1.42H414.121l-.146.992c-.08.546-.287 3.344-.46 6.218l-.315 5.226h-32.497l.083-.86zM456.406 280.59v-.925h2.125c2.52 0 3.827-.46 4.293-1.509.248-.558.348-4.795.407-17.21l.077-16.471-3.385.012c-4.443.015-6.99.322-7.843.946-.743.544-2.116 2.945-2.402 4.201-.63 2.772-.634 2.779-1.656 2.779h-.955l.172-2.422c.094-1.332.171-3.535.171-4.895v-2.473h37.836l.003 2.712c0 1.491.078 3.694.171 4.895l.17 2.183h-.943c-.914 0-.952-.04-1.218-1.283-.721-3.361-2.293-5.842-3.953-6.241-.391-.094-2.83-.242-5.42-.329l-4.71-.157.08 16.506c.096 20.072-.282 18.433 4.312 18.732l2.381.156.083.86.083.86H456.408v-.926zM517.26 280.621v-.895l1.752-.111c1.265-.08 1.845-.24 2.088-.571.505-.691.762-10.34.571-21.457-.19-11.118-.018-10.496-2.95-10.683l-1.725-.11V245.108l2.194-.271c1.311-.163 2.816-.557 3.736-.978.848-.388 1.882-.706 2.298-.706h.757l.071 17.75.072 17.751.625.506c.456.37 1.043.506 2.182.506h1.559v1.852h-13.23z"/>
  </g>
  <path d="M166.814 279.835c-1.539-.717-2.85-1.94-3.547-3.31-.404-.794-7.175-22.375-11.82-37.672-.13-.427.174-.463 3.912-.46l4.052.003 5.132 16.731c2.822 9.203 5.263 17.064 5.424 17.47l.292.736 22.755-16.446c12.514-9.046 23.72-17.148 24.9-18.006l2.148-1.56 6.392.072 6.393.07-8.407 5.984-29.178 20.768c-11.423 8.132-21.411 15.114-22.196 15.514-1.897.97-4.308 1.01-6.252.106z" fill="#203351"/>
  <path d="M243.946 279.758c-.775-.267-6.272-4.212-15.743-11.296-8.004-5.987-15.12-11.327-15.813-11.865l-1.262-.979 3.099-2.38c1.704-1.31 3.224-2.305 3.378-2.212.154.092 6.65 4.943 14.435 10.78 7.785 5.835 14.296 10.696 14.47 10.8.31.189 1.577-3.571 15.09-44.8l4.465-13.626 4.98-3.517c2.74-1.934 5.026-3.471 5.082-3.416.055.055-1.223 4.02-2.84 8.809-1.617 4.789-6.798 20.184-11.512 34.21-4.714 14.027-8.817 25.902-9.118 26.388-1.783 2.885-5.503 4.21-8.711 3.104zM195.395 243.86c-5.791-4.202-13.708-9.912-30.692-22.138-5.53-3.98-10.1-7.272-10.155-7.314-.19-.144-3.735-11.826-3.623-11.938.107-.107 4.837 3.318 38.649 27.984 8.44 6.157 15.919 11.609 16.619 12.115.7.506 1.176 1.004 1.058 1.106-.827.714-5.885 4.237-6.07 4.229-.126-.006-2.73-1.826-5.786-4.043z" fill="#458283"/>
  <path d="M158.485 236.347c-47.904-.482-51.979-.558-53.216-.994-2.492-.878-4.512-3.418-4.872-6.125-.23-1.733-.382-1.228 6.142-20.34 6.955-20.372 6.535-19.182 6.78-19.182.326 0 6.273 4.246 6.273 4.48 0 .192-2.53 7.662-8.968 26.488-1.47 4.3-2.674 7.9-2.674 8.004 0 .102 13.841.187 30.758.188h30.758l5.145 3.836 5.145 3.835-7.262-.06c-3.994-.035-10.298-.093-14.009-.13z" fill="#a11959"/>
  <path d="M282.998 234.654c-7.262-.124-13.262-.284-13.333-.355-.124-.124 1.768-6.814 2.057-7.275.075-.121 6.448-.11 14.16.025 7.713.135 15.943.212 18.29.17l4.268-.074-2.988-9.26c-10.638-32.98-15.216-47.25-15.5-48.32-.317-1.194-.281-1.349 1.634-6.934 1.078-3.142 2.04-5.569 2.139-5.392.099.176 1.728 5.261 3.622 11.3 1.893 6.04 6.726 21.448 10.74 34.24 6.224 19.844 7.296 23.498 7.294 24.872-.005 2.749-1.536 5.23-4.063 6.582-1.045.558-1.408.586-8.105.616-3.857.017-12.953-.07-20.215-.195z" fill="#1786bb"/>
  <path d="M194.469 215.168c-2.692-2.007-4.925-3.733-4.961-3.837-.062-.175 69.552-.102 69.734.074.187.18-2.138 7.057-2.421 7.16-.17.062-13.166.144-28.882.182l-28.575.069z" fill="url(#d)" opacity=".865" transform="translate(0 15.473)"/>
  <path d="M148.024 226.554c-.152-.112-.403-.62-.558-1.129-.156-.51-1.837-5.629-3.736-11.377-1.899-5.748-5.802-17.595-8.672-26.326l-5.22-15.875 1.79-5.424c.985-2.983 1.941-5.718 2.125-6.077.322-.63.353-.591.864 1.058.291.942 3.57 11.118 7.286 22.614 12.184 37.696 13.648 42.29 13.536 42.471-.156.252-7.08.313-7.415.065zM236.892 223.854l-2.159-.149 2.424-1.742c2.1-1.51 24.326-17.596 35.232-25.5 14.432-10.46 18.818-13.599 19.048-13.635.239-.038 2.662 7.102 2.466 7.266-.046.039-3.179 2.326-6.962 5.083a18416.741 18416.741 0 0 0-23.211 16.969l-16.332 11.956-4.174-.05c-2.295-.026-5.144-.116-6.332-.198z" fill="#203351"/>
  <path d="M130.035 199.282c-6.716-5.015-13.163-9.804-34.124-25.35-17.96-13.318-17.562-13.005-18.444-14.573a7.507 7.507 0 0 1 .343-7.917c.472-.688 1.82-1.874 3.36-2.96 1.414-.998 5.845-4.118 9.847-6.935 4.001-2.816 10.116-7.13 13.587-9.586 3.471-2.456 6.356-4.421 6.41-4.367.253.253 2.504 6.949 2.437 7.248-.043.187-2.585 2.101-5.65 4.253-20.067 14.088-23.928 16.834-23.928 17.016 0 .111 3.066 2.442 6.813 5.179 3.747 2.736 7.885 5.765 9.194 6.73 1.31.965 6.43 4.709 11.377 8.32l15.62 11.402 6.623 4.836 1.691 5.51a874.69 874.69 0 0 0 1.806 5.84c.062.181.012.323-.113.315-.125-.008-3.207-2.24-6.85-4.96z" fill="#458283"/>
  <path d="M269.954 194.38c.164-.428 5.556-16.905 9.582-29.28l3.701-11.377 4.907-15.082c1.775-5.457 3.307-10.07 3.404-10.252.121-.228 1.031.287 2.944 1.67 1.522 1.099 2.917 2.145 3.1 2.324.264.26-1.001 4.462-6.312 20.953a58931.653 58931.653 0 0 0-8.81 27.374l-2.168 6.747-2.501 1.803c-2.644 1.904-7.008 4.95-7.64 5.333-.282.17-.334.117-.207-.212z" fill="#333"/>
  <path d="M302.85 179.201c-1.176-3.453-1.213-3.646-.767-4.063.257-.24 6.719-4.822 14.359-10.18s14.161-9.95 14.493-10.202c.695-.53 3.96 1.955-29.84-22.708-10.404-7.592-19.056-14.007-19.225-14.255-.334-.488-3.883-11.697-3.745-11.825.12-.111 57.509 42.512 58.473 43.428 2.61 2.478 2.961 6.799.792 9.767-.517.71-4.177 3.447-11.45 8.566-5.879 4.138-13.107 9.228-16.063 11.311-2.955 2.083-5.467 3.787-5.583 3.787-.115 0-.765-1.632-1.444-3.626z" fill="#203351"/>
  <path d="M120.517 180.148c-1.6-1.168-2.941-2.263-2.98-2.434-.039-.171 3.863-12.575 8.671-27.563 6.987-21.78 8.858-27.332 9.318-27.65.316-.217 2.605-1.838 5.086-3.601 2.482-1.763 4.55-3.105 4.599-2.982.047.123-1.104 3.828-2.558 8.233-2.47 7.48-5.341 16.257-14.996 45.844-2.136 6.548-3.962 11.99-4.057 12.091-.095.102-1.482-.77-3.083-1.938z" fill="#a11959"/>
  <path d="M118.023 142.405c-1.946-6.217-5.018-16.007-6.825-21.755-10.15-32.281-11.45-36.555-11.45-37.65 0-2.857 1.617-5.517 4.134-6.803 1.268-.647 1.401-.659 7.904-.683 7.598-.029 33.777.375 33.925.523.054.055-.405 1.78-1.02 3.835l-1.12 3.736h-2.137c-1.175 0-9.38-.126-18.234-.281-8.854-.155-16.153-.226-16.22-.16-.068.068 2.632 8.678 6 19.134l8.633 26.816c1.381 4.293 2.874 8.915 3.316 10.271l.805 2.467-1.91 5.603c-1.05 3.082-1.988 5.75-2.085 5.927-.097.179-1.77-4.763-3.716-10.98z" fill="#21463f"/>
  <path d="M281.145 150.283c-.379-.947-21.324-65.93-21.324-66.157 0-.15 1.55-.253 3.778-.253h3.777l2.287 6.945c11.987 36.404 15.558 47.368 15.558 47.774 0 .867-3.914 12.095-4.076 11.691z" fill="#1786bb"/>
  <path d="M122.556 108.924c-.612-1.854-1.107-3.545-1.102-3.758.006-.212 3.548-2.957 7.872-6.1 4.323-3.144 13.278-9.682 19.899-14.529a8225.42 8225.42 0 0 1 15.266-11.157l3.228-2.344 6.39.071 6.39.071-3.797 2.757a5860 5860 0 0 1-8.427 6.104c-2.547 1.84-9.869 7.139-16.272 11.773a15916.214 15916.214 0 0 1-19.711 14.244c-4.439 3.2-8.194 5.913-8.347 6.029-.178.136-.67-.986-1.389-3.161z" fill="url(#e)" transform="translate(0 15.473)"/>
  <path d="M299.101 118.904c-1.595-1.104-3.053-2.154-3.24-2.333-.276-.263-.116-.973.845-3.745 4.396-12.684 10.475-30.653 10.475-30.963 0-.317-4.528-.371-30.718-.371h-30.719l-4.882-3.62c-2.685-1.991-4.951-3.733-5.036-3.87-.097-.157 3.983-.19 10.928-.086 6.095.09 18.107.225 26.693.3 29.29.253 35.053.386 36.492.846 2.8.896 4.908 3.84 4.913 6.862.003 1.71.508.139-9.66 29.995-1.56 4.584-2.917 8.483-3.014 8.664-.122.23-1.065-.285-3.077-1.679z" fill="#21463f"/>
  <path d="M241.402 91.477c-12.644-9.215-25.401-18.514-28.35-20.665L207.69 66.9l3.077-2.246c1.693-1.236 3.236-2.186 3.43-2.111.194.074 9.319 6.606 20.276 14.515a61907.428 61907.428 0 0 0 23.12 16.682l3.196 2.302 1.885 6.01c1.036 3.306 1.846 6.048 1.8 6.094-.046.046-10.428-7.456-23.072-16.67z" fill="#203351"/>
  <path d="M139.012 87.571c.195-.493 8.35-24.765 18.297-54.452 2.527-7.545 4.906-14.247 5.285-14.894 1.186-2.023 3.98-3.55 6.457-3.527 2.285.021 3.256.659 19.284 12.669 8.612 6.453 15.659 11.827 15.659 11.942 0 .115-1.362 1.242-3.027 2.505-2.002 1.52-3.143 2.225-3.373 2.085-.19-.115-6.746-5.008-14.566-10.873-7.82-5.865-14.313-10.664-14.427-10.664-.213 0-.628 1.238-10.38 30.957l-7.3 22.247-1.703 5.182-3.502 2.479c-6.853 4.85-6.921 4.895-6.704 4.344z" fill="url(#f)" transform="translate(0 15.473)"/>
  <path d="M155.993 83.642c-.071-.115.394-1.806 1.034-3.76l1.164-3.55 28.94-.067 28.94-.067 5.125 3.842 5.125 3.842-35.1-.016c-19.305-.008-35.158-.11-35.228-.224z" fill="#21463f"/>
  <g fill="#203351">
    <path d="M394.83 209.17c-1.878-.455-4.434-1.756-5.987-3.049-.708-.588-1.388-1.069-1.512-1.069-.205 0-.418.629-.921 2.712-.162.67-.277.728-1.47.728h-1.294v-14.817h2.566l.598 2.315c1.34 5.191 3.97 8.841 7.287 10.115 2.367.909 6.057.892 8.082-.037 2.876-1.319 4.563-3.843 4.563-6.827 0-1.461-.136-2.03-.763-3.183-1.208-2.218-3.224-3.517-10.633-6.848-6.247-2.808-8.558-4.638-10.295-8.151-.992-2.007-1.008-2.09-1.008-5.097 0-2.767.067-3.201.713-4.579.874-1.865 2.948-4.107 4.661-5.04 2.699-1.469 6.238-1.88 9.517-1.108 2.029.478 3.245 1.082 5.038 2.499l1.372 1.084.38-.867c.208-.477.448-1.194.533-1.594.142-.676.247-.728 1.471-.728h1.318V177.8h-2.626l-.3-1.117c-.905-3.36-3.545-6.87-6.087-8.092-3.256-1.565-7.327-1.216-9.146.783-2.204 2.423-2.05 6.24.341 8.464 1.362 1.266 3.852 2.672 8.886 5.019 5.897 2.749 7.707 3.809 9.12 5.342 2.277 2.47 3.253 5.065 3.248 8.633-.006 3.952-1.092 6.636-3.69 9.115-2.676 2.552-5.651 3.61-10.065 3.577-1.382-.01-3.136-.17-3.897-.354zM442.79 164.937c-2.446-.001-4.887.209-6.572.632-6.506 1.635-11.98 5.858-14.605 11.27-1.73 3.566-2.096 5.351-2.096 10.22 0 4.455.413 6.69 1.826 9.885 2.751 6.218 8.913 10.88 16.146 12.216 4.774.882 11.56.262 15.664-1.43a21.03 21.03 0 0 0 12.656-15.348c.63-3.11.426-9.378-.395-12.197-2.081-7.141-8.102-12.631-16.02-14.606-1.705-.426-4.157-.64-6.603-.642zm-.01 2.816c4.567 0 7.765 1.263 10.441 4.125 2.66 2.842 4.034 6.542 4.544 12.228.339 3.77.026 8.207-.808 11.47-1.424 5.566-4.783 9.3-9.558 10.623-3.08.855-6.958.717-10.198-.36-3.367-1.121-6.408-4.185-7.772-7.832-1.2-3.209-1.466-5.197-1.46-10.947.005-4.677.084-5.734.577-7.673 2.003-7.875 6.602-11.634 14.234-11.634zM489.604 209.146c-7.924-1.741-13.59-7.254-15.505-15.085-.815-3.335-.819-8.8-.008-12.115 1.211-4.951 3.128-8.612 5.995-11.452 3.977-3.939 9.77-5.975 15.85-5.572 4.198.278 7.194 1.382 10.833 3.993l1.997 1.433.403-1.235c.222-.68.482-1.741.577-2.36l.174-1.124h2.494l.174 5.358c.095 2.946.174 6.816.174 8.599v3.24h-1.186c-1.078 0-1.2-.065-1.345-.727-1.21-5.512-2.376-8.15-4.57-10.338-4.167-4.155-11.182-5.256-16.177-2.538-2.687 1.463-5.046 4.65-6.325 8.548-1.477 4.497-1.75 12.565-.578 17.094 2.582 9.986 11.163 14.31 19.979 10.07 2.472-1.189 4.28-3.115 5.685-6.062 1.095-2.293 1.871-4.879 1.871-6.229 0-.81.02-.821 1.323-.821h1.323v15.875h-1.199c-.732 0-1.236-.13-1.294-.331-.242-.844-.975-2.75-1.185-3.078-.183-.287-.599-.069-1.916 1.004-2.106 1.715-4.771 3.043-7.48 3.728-2.471.625-7.525.687-10.084.125zM519.377 207.433v-1.323h1.86c1.036 0 2.273-.172 2.788-.387 1.734-.724 1.702-.384 1.7-18.456 0-10.39-.1-16.57-.276-17.203-.15-.544-.515-1.118-.809-1.275-.293-.158-1.598-.355-2.898-.44l-2.365-.153v-2.567H539.75v2.567l-2.404.156c-2.836.184-3.568.557-3.867 1.971-.116.547-.211 8.257-.211 17.134 0 17.858-.023 17.6 1.624 18.289.48.2 1.769.364 2.865.364h1.993v2.646H519.377zM543.983 207.466v-1.29l2.29-.12c2.154-.113 2.332-.168 3.016-.934.625-.7.753-1.126.907-3.022.31-3.822.038-31.478-.318-32.288-.429-.974-1.111-1.28-3.262-1.46l-1.839-.154v-2.569h31.211l.127.595c.153.714.941 9.397.941 10.366 0 .638-.08.68-1.29.68h-1.291l-.444-1.768c-.925-3.682-2.548-5.917-4.84-6.668-.57-.187-3.234-.393-6.224-.481l-5.225-.155v16.55l3.505-.122c5.14-.179 5.755-.659 5.755-4.485v-1.812h2.911v15.61h-2.911v-1.86c0-1.024-.169-2.265-.375-2.758-.635-1.52-1.29-1.757-5.32-1.926l-3.606-.151.087 8.308c.098 9.45.137 9.656 1.938 10.199 1.349.406 8.123.452 9.975.068 3.735-.775 6.6-4.135 8.114-9.52l.478-1.698 1.387-.081 1.387-.08-.15 1.403c-.084.772-.274 3.428-.424 5.901-.15 2.474-.342 5.064-.425 5.755l-.151 1.257h-35.934zM595.1 207.5l.08-1.258 2.778-.147c1.676-.09 3.007-.294 3.355-.515 1.285-.82 1.27-.593 1.357-19.512l.081-17.793-4.182.019c-4.996.023-6.732.237-7.695.95-.997.736-2.358 3.558-2.786 5.778l-.358 1.852-1.408.081-1.407.081.172-1.641c.094-.903.171-3.47.171-5.704v-4.062h42.069v1.521c0 .837.079 3.397.174 5.689l.173 4.167h-2.661l-.174-1.125c-.287-1.86-1.2-4.329-2.021-5.462-1.323-1.826-1.834-1.967-7.597-2.094l-5.093-.113v17.635c0 19.635-.042 19.147 1.702 19.876.568.237 1.801.387 3.184.387h2.258v2.646h-22.254l.08-1.257zM642.144 207.462v-1.294l1.97-.1c2.245-.113 3.283-.672 3.64-1.96.119-.427.215-3.305.215-6.396v-5.62l-5.596-9.197c-8.645-14.206-8.655-14.22-11.395-14.544l-1.27-.15v-2.572H647.966v2.569l-1.756.164c-1.841.172-3.006.708-3.006 1.383 0 .667 1.104 2.642 5.82 10.414 2.487 4.095 4.588 7.621 4.67 7.835.082.214.243.39.357.39.271 0 7.928-12.866 8.979-15.088.987-2.086 1.007-2.632.133-3.67-.707-.84-2.018-1.347-3.49-1.35-.854-.002-.859-.009-.859-1.324v-1.323h15.081V168.19l-1.461.327c-3.141.702-4.36 2.208-11.76 14.53l-5.351 8.907.106 5.953c.089 4.945.183 6.097.555 6.8.52.982 1.656 1.398 3.822 1.4l1.389.003v2.646h-19.05v-1.294zM813.545 142.06c-7.243-1.062-12.623-4.85-15.567-10.96-.702-1.454-1.465-3.507-1.696-4.562-1.633-7.44.066-15.81 4.376-21.567 4.882-6.518 14.904-9.249 23.044-6.278 2.198.803 5.546 2.726 6.414 3.685.271.3.584.545.695.545.253 0 .945-2.14 1.176-3.638l.174-1.125h2.6v2.448c0 1.346.078 5.215.174 8.599l.174 6.151h-1.365c-1.207 0-1.365-.064-1.365-.551 0-1.083-1.119-4.906-1.984-6.777-3.737-8.09-15.204-10.306-21.26-4.11-3.355 3.434-5.061 8.862-5.065 16.115-.005 8.703 2.61 14.576 7.818 17.556 4.927 2.82 12.152 1.753 16.09-2.375 2.146-2.25 4.101-6.617 4.45-9.936.078-.745.16-.799 1.34-.874l1.256-.081v16.198l-1.229-.081c-1.182-.078-1.24-.12-1.543-1.14a13.136 13.136 0 0 0-.768-1.929l-.454-.87-1.244 1.095c-4.196 3.698-10.203 5.348-16.242 4.462zM381 140.241c0-1.31 0-1.31.992-1.466 1.937-.302 2.857-.658 3.87-1.495 1.94-1.605 1.875-1.022 1.97-17.424.046-8.076.007-15.306-.085-16.066-.28-2.29-.67-2.564-3.88-2.72l-2.735-.131v-2.646l6.903-.07 6.903-.071 2.195 4.965c10.01 22.635 12.527 28.276 12.693 28.457.106.115 2.2-4.35 4.653-9.922 2.454-5.571 5.777-13.107 7.385-16.745l2.925-6.614 6.945-.07 6.945-.071v2.872l-2.901.09c-3.4.104-3.584.215-3.988 2.403-.427 2.309-.23 32.953.218 33.736.601 1.053 1.418 1.362 4.097 1.55l2.574.181v2.574l-10.65-.069-10.649-.07-.023-1.221-.023-1.222 2.404-.175c2.731-.199 3.543-.607 4.043-2.036.369-1.052.462-30.634.094-29.741-.12.291-2.955 6.72-6.3 14.288a8491.898 8491.898 0 0 0-7.505 17.008l-1.421 3.25-1.176-.075-1.176-.075-7.423-16.681c-4.083-9.175-7.567-16.974-7.742-17.33-.252-.514-.307 2.314-.264 13.525l.054 14.175.71 1.073c.727 1.099 2.952 2.456 4.038 2.463 1.47.01 1.734.256 1.734 1.615v1.292H381v-1.31zM463.971 97.606l-1.052.079-1.052.079-2.886 6.879c-1.587 3.783-4.971 11.88-7.52 17.991-2.55 6.112-5 11.803-5.445 12.648-1.029 1.948-1.97 2.734-3.926 3.277l-1.559.434v2.56h13.759v-1.312c0-1.31-.002-1.311-.993-1.475-4.152-.688-4.377-2.189-1.458-9.72l1.207-3.112 7.546.07 7.547.07.766 1.852c2.527 6.107 3.64 8.985 3.64 9.41 0 .723-1.027 1.301-2.373 1.337-.659.017-1.545.106-1.97.198-.707.154-.771.264-.789 1.358l-.019 1.19 8.926.07 8.926.07v-2.615l-1.458-.303c-2-.415-2.94-1.292-4.104-3.832-.534-1.166-4.288-10.014-8.342-19.662l-7.37-17.541zm-3.361 10.212l.385.926 3.089 7.408c1.487 3.565 2.762 6.631 2.833 6.813.101.26-1.254.33-6.249.33-3.508 0-6.378-.042-6.378-.093 0-.052 1.422-3.535 3.16-7.74l3.16-7.644zM492.39 140.27v-1.284l2.705-.165c3.056-.186 3.83-.55 4.357-2.056.232-.662.32-5.538.331-18.317l.015-17.416-5.406.085c-5 .08-5.46.128-6.151.64-1.207.898-2.188 2.771-2.807 5.36l-.578 2.42h-2.52v-3.664c0-2.015.076-4.576.17-5.69l.172-2.026 20.93.068 20.928.068.072 5.637.071 5.637-1.252-.08-1.253-.082-.293-1.455c-.763-3.782-2.172-6.086-4.038-6.604-.539-.15-3.157-.273-5.819-.274l-4.839-.001.077 17.805c.07 16.434.112 17.86.54 18.511.688 1.05 1.215 1.232 4.144 1.424l2.668.175v2.566H492.39v-1.283zM528.902 140.284v-1.267l2.399-.279c2.964-.344 3.337-.651 3.71-3.046.166-1.068.238-7.615.189-17.181-.073-13.99-.123-15.534-.533-16.282-.544-.994-1.045-1.15-3.714-1.155l-2.05-.003V98.16h20.107v2.911l-2.182.004c-1.223.002-2.474.15-2.845.337-1.133.572-1.292 1.644-1.308 8.853l-.015 6.68h20.72l-.158-6.812c-.092-3.964-.283-7.165-.457-7.654-.39-1.093-1.314-1.408-4.137-1.408h-2.21V98.16h20.374V101.018l-2.375.093c-3.444.134-3.484.189-3.78 5.178-.341 5.758-.086 29.609.328 30.707.432 1.144 1.346 1.577 3.8 1.8l2.027.183v2.573H556.419v-2.573l2.296-.186c1.263-.103 2.622-.355 3.02-.561 1.237-.64 1.374-1.619 1.404-10.032l.027-7.682-10.253-.07-10.253-.069v7.817c0 10.187.021 10.24 4.168 10.593l2.182.186V141.553h-20.108v-1.269zM581.554 140.275V139l2.386-.274c2.836-.325 3.295-.648 3.7-2.602.46-2.217.248-32.843-.235-33.781-.465-.906-.807-1.044-3.073-1.242l-1.852-.162v-2.646h31.221l.547 5.689c.3 3.129.465 5.785.366 5.904-.099.118-.69.178-1.313.132l-1.133-.083-.584-2.027c-1.042-3.622-2.101-5.207-4.1-6.142-1.066-.498-1.77-.566-6.681-.649l-5.49-.092v16.186l3.108-.002c5.313-.003 5.935-.4 6.146-3.923l.138-2.293h2.646l.07 7.885.07 7.886-1.393-.08-1.393-.08-.138-2.304c-.151-2.52-.668-3.612-1.87-3.948-.35-.098-2.166-.19-4.034-.205l-3.396-.026.102 8.136c.07 5.49.206 8.377.419 8.876.438 1.03 1.63 1.448 4.705 1.654 3.192.213 7.092-.196 8.712-.912 1.487-.658 3.455-2.65 4.474-4.528.425-.782 1.1-2.441 1.5-3.686l.726-2.264 1.378-.081 1.378-.081-.162 1.668c-.088.918-.284 3.634-.433 6.035-.15 2.4-.338 4.871-.417 5.49l-.144 1.124h-35.951v-1.276zM622.3 140.241c0-1.309.003-1.311.992-1.477 2.842-.477 4.335-1.417 5.191-3.269.555-1.2.564-1.46.564-16.697 0-16.643-.014-16.818-1.353-17.428-.361-.165-1.722-.3-3.025-.3H622.3v-2.91h13.789l1.128 2.448c.621 1.346 3.978 8.905 7.46 16.797 3.481 7.892 6.392 14.351 6.467 14.353.075.002 1.218-2.466 2.54-5.486 1.323-3.02 4.646-10.58 7.385-16.8l4.98-11.312h13.93v2.911l-2.58.004c-3.002.004-3.773.295-4.218 1.59-.45 1.312-.45 32.814 0 34.1.518 1.48 1.301 1.86 4.22 2.052l2.578.17v2.565H658.548v-2.568l2.289-.176c1.258-.096 2.597-.323 2.974-.504 1.486-.713 1.477-.611 1.564-16.853.044-8.217.027-14.885-.038-14.816-.065.068-3.295 7.328-7.177 16.132a7452.262 7452.262 0 0 1-7.686 17.396c-.617 1.364-.648 1.389-1.767 1.387l-1.14-.002-7.123-16.071c-3.918-8.84-7.46-16.726-7.872-17.527l-.749-1.455.071 13.89c.069 13.508.086 13.925.631 15.11.85 1.85 2.344 2.792 5.187 3.27.99.165.992.168.992 1.477v1.31H622.3v-1.31zM703.13 97.634l-2.565 6.15c-1.41 3.383-4.012 9.603-5.781 13.823-1.769 4.22-4.147 9.9-5.284 12.621-1.138 2.722-2.434 5.478-2.88 6.125-.78 1.134-2.56 2.289-3.528 2.289-1.024 0-1.26.303-1.26 1.616v1.294h13.758v-2.577l-1.573-.31c-1.213-.238-1.728-.493-2.249-1.113-1.15-1.366-.956-2.68 1.221-8.241l1.323-3.378 7.542.07 7.542.071.655 1.587c3.506 8.51 3.845 9.469 3.564 10.085-.31.68-.66.791-3.275 1.036l-1.786.166V141.56l8.916-.07 8.917-.07.019-1.255c.019-1.234.002-1.26-.913-1.425-1.606-.29-2.814-.888-3.401-1.682-.631-.854-2.834-5.953-11.17-25.858l-5.675-13.552-1.058-.006-1.059-.007zm-1.178 10.519c.09.106.795 1.742 1.567 3.633.772 1.892 2.153 5.256 3.07 7.475l1.666 4.035h-6.332c-3.483 0-6.333-.081-6.333-.18 0-.495 6.222-15.13 6.362-14.963zM733.69 140.272v-1.286l2.47-.162c2.927-.193 3.69-.442 4.329-1.415.445-.68.482-1.901.555-18.533l.078-17.805-4.84.001c-2.663.001-5.265.12-5.782.263-1.813.504-3.35 2.97-4.002 6.417l-.337 1.786h-2.536l.071-5.623.072-5.622 20.928-.068 20.928-.068.171 2.582c.094 1.42.172 3.98.172 5.69l.003 3.109h-2.585l-.18-1.201c-.255-1.696-1.103-4.046-1.89-5.236-1.174-1.773-2.123-2.018-7.853-2.024l-4.968-.006.073 17.793c.079 19.121.059 18.856 1.436 19.483.354.162 1.835.372 3.291.467l2.648.174-.08 1.216-.078 1.216-11.047.069-11.046.069v-1.286zM769.673 140.27v-1.288l2.169-.18c1.193-.1 2.471-.327 2.842-.504 1.492-.716 1.471-.451 1.471-18.442 0-18.132.014-17.97-1.52-18.504-.444-.155-1.742-.282-2.885-.282h-2.077v-2.916l10.253.07 10.252.068-.008 1.323-.008 1.323-2.596.135c-2.977.154-3.449.464-3.737 2.456-.088.612-.124 8.376-.08 17.253.086 17.39.047 16.93 1.465 17.575.342.156 1.6.358 2.798.45l2.177.168-.005 1.222-.005 1.222-10.252.07-10.253.069v-1.288zM862.677 97.672a4.139 4.139 0 0 0-.46.011l-1.053.08-5.27 12.568a4109.702 4109.702 0 0 0-7.283 17.462c-3.683 8.95-4.365 9.96-7.264 10.766l-1.56.434v2.559h13.759v-2.6l-1.125-.187c-1.642-.273-2.543-.823-3.035-1.855-.405-.851-.404-1.043.024-2.832.253-1.055 1.019-3.288 1.702-4.962l1.243-3.043h15.081l2.084 5.018c1.145 2.76 2.143 5.465 2.216 6.012.12.893.06 1.024-.579 1.267-.392.15-1.166.271-1.72.271-.555 0-1.38.075-1.835.166-.79.158-.827.222-.827 1.455v1.29h17.727v-2.609l-1.458-.302c-1.876-.39-2.823-1.209-3.81-3.297-.588-1.245-14.954-35.183-15.83-37.396-.065-.167-.318-.261-.727-.276zm-2.858 10.452c.11-.179 5.731 12.92 6.312 14.708.14.433-.273.463-6.246.463-5.014 0-6.366-.071-6.258-.33.077-.182 1.47-3.546 3.096-7.474 1.627-3.93 3.02-7.244 3.096-7.367zM886.556 141.353c-.051-.11-.078-.675-.06-1.257l.034-1.058 2.427-.272c2.1-.236 2.525-.37 3.153-.998l.726-.726.079-16.465c.043-9.055.01-16.842-.075-17.305-.315-1.732-.857-2.05-3.749-2.2l-2.605-.134.023-1.323.022-1.323h21.387v2.646l-2.91.142c-1.601.078-3.109.236-3.35.35-1.115.528-1.149 1.08-1.149 18.75v16.862l.693.693c.576.575 1.069.737 2.91.953 2.742.322 8.532.053 10.325-.48 2.476-.735 4.437-3.384 6.044-8.166l.711-2.117 1.234-.08 1.234-.08v3.916c0 2.155-.078 5.257-.172 6.894l-.172 2.977h-18.332c-10.083 0-18.375-.09-18.426-.199zM508.343 69.916c-2.172-2.874-7.45-9.869-11.727-15.544a5501.157 5501.157 0 0 0-10.368-13.72l-2.59-3.401v15.44c0 14.173.039 15.514.463 16.355.661 1.309 2.395 2.124 4.926 2.315l2.02.153v2.569h-17.228l.08-1.25.082-1.25 1.924-.32c2.651-.443 4.064-1.26 4.507-2.609.272-.83.328-4.377.264-16.796-.099-19.275.21-17.902-4.08-18.185l-2.148-.141v-2.576l6.778.015 6.778.016 11.773 15.603 11.774 15.604.078-12.113c.043-6.662.008-12.601-.076-13.198-.099-.694-.413-1.332-.872-1.772-.803-.77-3.254-1.509-5.006-1.509h-1.135v-2.646h16.669v2.529l-1.837.29c-2.496.392-4.137 1.368-4.5 2.676-.178.639-.275 7.644-.276 19.84v18.85h-2.324zM664.599 73.483c-1.323-1.78-13.507-17.952-22.064-29.287l-5.286-7.002-.08 14.145c-.043 7.78-.004 14.885.087 15.789.276 2.745 1.747 3.92 5.28 4.219l1.989.168v2.568h-16.933v-2.526l2.021-.322c2.201-.35 3.335-.882 4.116-1.929.482-.647.503-1.34.486-16.503-.012-10.45-.116-16.216-.305-16.97-.425-1.687-.876-1.963-3.506-2.148l-2.283-.162v-2.567h13.419l10.422 13.788c5.732 7.583 11.077 14.635 11.878 15.67l1.455 1.885.08-11.504c.043-6.328.002-12.27-.093-13.204-.269-2.664-1.435-3.515-5.345-3.902l-1.654-.163v-2.57h16.405v2.574l-1.225.168c-1.922.263-3.186.718-4.072 1.465-.685.577-.857.966-1.062 2.408-.135.946-.248 9.786-.25 19.645l-.006 17.926-1.124-.006c-1.07-.005-1.185-.086-2.35-1.653zM445.426 30.31c-3.865.001-4.815.088-6.747.611-7.614 2.063-13.072 6.966-15.362 13.8-2.586 7.72-.899 17.006 4.121 22.683 3.156 3.567 7.867 6.143 12.961 7.083 1.019.189 3.322.353 5.118.366 7.248.053 13.115-2.154 17.462-6.57 2.748-2.79 4.29-5.541 5.393-9.62.832-3.078.818-9.377-.027-12.493-1.043-3.848-2.433-6.34-4.997-8.96-3.041-3.11-6.75-5.22-11.096-6.314-1.952-.492-3.055-.587-6.826-.586zm-.04 2.763c3.056 0 4.81.34 6.937 1.341 3.28 1.545 5.47 4.225 6.906 8.448 1.155 3.397 1.512 6.404 1.335 11.245-.239 6.52-1.614 10.666-4.61 13.904-1.479 1.598-3.571 2.855-5.88 3.533-1.826.537-6.72.54-8.749.004-6.85-1.807-10.3-7.363-10.751-17.308-.363-8 1.24-13.822 4.78-17.363 2.704-2.703 5.608-3.804 10.031-3.804zM598.37 30.197c-1.23.008-2.386.077-3.317.214-9.189 1.343-16.215 7.175-18.518 15.37-1.165 4.148-.992 10.141.421 14.497 2.357 7.269 8.832 12.646 17.129 14.225 2.84.54 9.483.325 12.208-.396 6.98-1.849 12.631-6.758 14.864-12.91 1.033-2.846 1.408-5.16 1.408-8.706 0-6.427-1.603-10.981-5.273-14.983-2.69-2.93-7.037-5.467-11.264-6.57-1.873-.488-4.949-.76-7.657-.741zm.779 2.876c5.489 0 9.35 1.94 11.948 6.001 3.067 4.794 4.086 14.212 2.323 21.462-1.39 5.72-4.99 9.777-9.782 11.025-1.937.504-6.558.501-8.65-.006-5.785-1.402-9.26-5.777-10.423-13.124-.603-3.804-.395-11.127.4-14.098 2.027-7.575 6.669-11.26 14.184-11.26zM381.533 73.091c.003-.546.092-1.125.199-1.288.107-.162 1.166-.35 2.355-.418 2.562-.145 3.384-.58 3.778-1.996.377-1.357.378-32.64.003-33.998-.362-1.303-.973-1.587-3.811-1.77l-2.369-.151-.018-1.257-.018-1.257H403.227v2.58l-3.053.116c-3.767.145-4 .308-4.383 3.069-.155 1.117-.23 8.155-.183 17.32.072 14.219.115 15.492.544 16.147.257.392.793.803 1.191.915 1.221.341 10.914.233 12.143-.136 1.775-.533 3.651-2.437 4.846-4.919.57-1.183 1.24-2.895 1.49-3.805l.456-1.653h2.56v3.927c0 2.16-.079 5.196-.173 6.747l-.174 2.82H381.53l.004-.993zM542.285 30.516c-2.534.006-5.481.105-8.985.281-4.64.233-8.658.424-8.93.424-.416 0-.495.206-.495 1.283v1.283l2.553.168c2.984.196 3.682.54 3.983 1.96.116.547.21 8.198.21 17.002 0 17.016-.012 17.194-1.264 17.976-.349.218-1.633.417-3.167.49l-2.58.125v2.613l14.09-.1c16.029-.115 15.913-.1 20.772-2.465 5.997-2.916 9.591-9.043 10.039-17.107.536-9.675-3.334-17.252-10.77-21.082-3.984-2.053-7.856-2.868-15.456-2.85zm-4.14 2.821h3.954c4.643 0 7.422.453 9.69 1.579 4.139 2.055 7.058 6.361 8.168 12.048 1.61 8.249.09 16.231-3.89 20.44-1.737 1.837-3.018 2.577-5.624 3.252-1.352.35-3.219.577-5.269.64-3.32.104-4.32.029-5.431-.406-1.495-.585-1.442.093-1.523-19.495l-.075-18.058z"/>
  </g>
  <path d="M182.708 72.803c.138-.121 1.263-.935 2.5-1.808a4826.5 4826.5 0 0 0 9.128-6.477c9.209-6.547 28.748-20.444 39.027-27.756 8.335-5.93 9.913-6.839 11.906-6.854 2.37-.018 4.94 1.358 6.264 3.354.462.696 1.193 2.457 1.624 3.912.432 1.455 3 9.813 5.709 18.573 2.708 8.76 4.924 15.992 4.924 16.073 0 .08-1.781.147-3.958.147h-3.957l-.792-2.58c-.435-1.419-2.297-7.461-4.137-13.428a4574.798 4574.798 0 0 1-4.548-14.816c-.661-2.183-1.242-4.015-1.29-4.072-.05-.057-.48.194-.957.557-.476.364-2.593 1.904-4.703 3.423-2.11 1.519-10.325 7.451-18.256 13.184-7.931 5.732-16.278 11.756-18.548 13.387a875.856 875.856 0 0 0-5.784 4.184l-1.656 1.219h-6.374c-3.505 0-6.26-.1-6.122-.222z" fill="#1786bb"/>
</svg>
