<svg xmlns="http://www.w3.org/2000/svg" viewBox="0 0 378 378"><title>University of Oxford Logo</title><path d="M0 377.947h377.956V-.005H0z" fill="#0f1f47"/><path d="M74.803 314.401c0-13.188-6.396-22.39-17.183-22.39-11.726 0-17.195 11.05-17.195 22.39 0 13.183 6.398 22.377 17.195 22.377 11.724 0 17.183-11.049 17.183-22.377zm8-.261c0 14.505-11.196 25.036-25.183 25.036-14.26 0-25.187-10.65-25.187-24.517 0-14.515 11.192-25.047 25.187-25.047 14.258 0 25.183 10.663 25.183 24.528M228.58 314.401c0-13.188-6.401-22.39-17.19-22.39-11.726 0-17.187 11.05-17.187 22.39 0 13.183 6.396 22.377 17.186 22.377 11.724 0 17.191-11.049 17.191-22.377zm7.992-.261c0 14.505-11.192 25.036-25.183 25.036-14.26 0-25.188-10.65-25.188-24.517 0-14.515 11.196-25.047 25.188-25.047 14.259 0 25.183 10.663 25.183 24.528M267.088 322.384c-2.8-3.997-3.867-5.455-7.328-5.455h-3.735v16.256c0 1.334.534 1.988 2.003 2.26l5.461 1.199v1.74h-21.453v-1.74l4.932-1.199c1.461-.393 1.995-.926 1.995-2.26v-37.578c0-1.335-.534-1.864-1.995-2.262l-4.932-1.2v-1.738h20.919c4.401 0 7.464.405 9.994 1.33 5.199 2.006 8.128 6.943 8.128 11.594 0 5.872-4.396 10.809-11.726 12.522v.267c1.469.68 2.265 1.607 7.464 8.412l6.528 8.653c.933 1.334 2.133 2.126 3.6 2.4l4.796 1.059v1.74H280.28c-1.333 0-2-.407-3.197-2.01l-9.995-13.99zm-11.063-7.725h5.998c9.062 0 11.062-5.72 11.062-11.193 0-4.13-1.866-7.995-6.13-9.855-2.266-.936-4.399-.936-7.331-.936h-3.599v21.984M173.144 306.797h2v15.995h-2l-1.2-4.795c-.401-1.738-1.467-2.4-3.063-2.4h-11.597v17.588c0 1.334.535 1.988 2 2.26l5.464 1.199v1.74h-21.45v-1.74l4.929-1.199c1.466-.393 2-.926 2-2.26v-37.578c0-1.335-.534-1.864-2-2.262l-4.93-1.2v-1.738h36.243v12.005h-2l-2.263-7.205c-.534-1.862-1.333-2.532-2.933-2.532h-15.06v20.652h11.597c1.596 0 2.528-.657 3.063-2.4l1.2-4.13M309.593 292.675v41.3c0 1.742.399 2.15 2.132 2.15h5.863c5.596 0 9.727-.814 12.659-2.94 4.929-3.593 7.196-10.124 7.196-18.39 0-8.129-2.267-16.115-8.928-19.982-2.796-1.604-6.396-2.138-11.995-2.138h-6.927zm-13.992 45.71v-1.741l4.93-1.199c1.469-.393 2-.926 2-2.26v-37.578c0-1.335-.531-1.864-2-2.262l-4.93-1.2v-1.738h22.52c6.128 0 10.527.801 14.126 2.4 9.06 4.133 13.193 13.057 13.193 21.852 0 8.54-3.201 16.524-11.33 20.786-3.727 2.011-8.926 2.94-15.72 2.94H295.6M101.592 336.644v1.74H84.67v-1.74l4.258-1.06c1.606-.41 2.666-.93 3.731-2.128l14.662-18.39-14.662-19.46c-.93-1.334-2.125-1.995-3.596-2.397l-4-1.064v-1.738h21.055v1.738l-4.526.928c-1.605.272-1.203.934-.407 2.003l10.795 15.457h.265l11.063-15.457c.8-1.07 1.067-1.465-.399-1.867l-4.265-1.064v-1.738h16.924v1.738l-4.265 1.064c-1.597.402-2.664.93-3.732 2.128l-13.857 17.468 15.456 20.38c.937 1.334 2.133 1.988 3.599 2.4l4 1.059v1.74h-21.055v-1.74l4.529-.927c1.601-.272 1.333-.79.534-1.878L109.05 317.32h-.266l-11.856 16.407c-.803 1.062-1.068 1.446.395 1.857l4.269 1.06M51.117 267.83c-1.325 1.326-3.314 2.211-6.086 2.211-2.419 0-4.66-.763-6.176-2.278-2.069-2.07-1.975-4.71-1.975-7.532v-13.343h2.721v14.333c0 1.815-.055 3.582 1.346 4.984.972.97 2.465 1.495 4.186 1.495 1.683 0 3.032-.581 3.874-1.424 1.56-1.559 1.461-3.257 1.461-7.363v-12.025h2.68v11.32c0 4.3.174 7.417-2.031 9.623M75.264 269.613l-10.948-18.628.067 18.628h-2.5v-22.726h2.791l10.985 18.732-.067-18.732h2.5v22.726h-2.828M87.568 269.61h2.734v-22.722h-2.734zM107.303 269.61h-3.13l-7.837-22.722h2.85l6.63 20.061 6.826-20.061h2.645l-7.984 22.723M121.473 269.61v-22.722h12.354v2.267h-9.675v7.498h9.082v2.21h-9.082v8.413h9.947v2.335h-12.626M153.856 269.61l-2.61-5.889c-1.618-3.622-2.355-3.994-5.65-3.994h-1.585v9.884h-2.679v-22.723h4.901c3.034 0 5.32-.02 7.108 1.768 1.138 1.136 1.772 2.648 1.772 4.544 0 1.578-.458 2.894-1.41 3.905-.819.87-2.172 1.634-3.646 1.792.802.046 1.462.476 1.891.907.619.619 1.07 1.555 1.735 3.04l3.018 6.767zm-2.483-19.302c-1.302-1.304-2.993-1.244-4.845-1.244h-2.517v8.487h.904c2.294 0 4.764.119 6.322-1.44.755-.752 1.175-1.81 1.175-2.962 0-1.278-.501-2.305-1.039-2.84M183.247 269.61h2.733v-22.722h-2.733zM201.584 249.155v20.456h-2.733v-20.456h-6.754v-2.267h16.22v2.267h-6.733M221.397 260.63v8.98h-2.7v-8.98l-7.213-13.742h3.125l5.6 10.657 5.44-10.658h2.962l-7.214 13.744M254.11 270.041c-5.88 0-10.18-4.858-10.18-11.69 0-7.018 4.253-11.894 10.39-11.894 5.95 0 10.148 4.826 10.148 11.687 0 7.033-4.208 11.897-10.357 11.897zm-.007-21.261c-4.455 0-7.346 3.76-7.346 9.428 0 5.645 3.219 9.492 7.49 9.492 4.749 0 7.392-4.041 7.392-9.672 0-5.543-3.12-9.248-7.536-9.248M274.653 249.155v7.498h8.787v2.21h-8.787v10.748h-2.712v-22.723h12.068v2.267h-9.356M162.21 252.432c0-3.492 2.81-5.979 6.914-5.979 4.155 0 6.148 2.147 6.352 2.368l-1.333 1.615c-.51-.392-2.328-1.73-4.839-1.73-2.9 0-4.505 1.515-4.505 3.571 0 .996.408 1.713 1.065 2.301.779.7 1.916 1.217 3.14 1.78 1.524.7 3.612 1.489 5.01 2.94.969 1.003 1.7 2.309 1.7 4.1 0 3.78-2.622 6.657-7.34 6.657-4.018 0-6.555-2.214-6.794-2.435l1.253-1.844c.646.48 3.168 1.973 5.475 1.973 3.419 0 4.699-1.872 4.699-4.13 0-1.05-.478-1.894-1.184-2.57-1.062-1.024-2.666-1.706-4.203-2.41-1.528-.698-2.997-1.427-4.039-2.522-.686-.72-1.37-1.9-1.37-3.685M266.6 93.148c0-2.855-.967-5.159-3.057-6.387-1.311-.769-3.086-1.02-5.271-1.02l-15.912-.002v32.128h17.317c3.991 0 6.339.898 6.544 4.48h.382l-.003-29.199M268.824 93.148c0-2.855.965-5.159 3.057-6.387 1.311-.769 3.084-1.02 5.272-1.02l16.022-.002v32.128h-17.428c-3.992 0-6.34.898-6.544 4.48h-.382l.003-29.199" fill="#fff"/><path d="M296.5 88.115v33.962h-24.601l-.28.695c-.43 1.06-1.196 2.04-3.883 2.04-2.683 0-3.45-.98-3.879-2.04l-.281-.695h-24.561V88.115h-2.222v1.034l-2.129-.654a2.019 2.019 0 0 0-1.933-1.455 2.024 2.024 0 0 0 0 4.047 2 2 0 0 0 1.28-.468l2.782.854v2.731l-2.09-.376a2.023 2.023 0 1 0-1.861 2.819c.577 0 1.095-.246 1.463-.632l2.488.445v2.784l-2.184-.096a2.018 2.018 0 0 0-1.729-.988 2.025 2.025 0 0 0-2.024 2.023c0 1.118.908 2.024 2.024 2.024.673 0 1.267-.334 1.633-.84l2.28.101v3.024l-2.233.08a2.017 2.017 0 0 0-1.644-.852 2.026 2.026 0 0 0-2.024 2.024c0 1.117.91 2.023 2.024 2.023.732 0 1.367-.392 1.723-.974l2.154-.077v2.787l-2.442.42a2.013 2.013 0 0 0-1.471-.643 2.024 2.024 0 0 0 0 4.047 2.02 2.02 0 0 0 1.852-1.216l2.061-.354v2.736l-2.67.816a2 2 0 0 0-1.282-.469 2.024 2.024 0 0 0 0 4.047c.919 0 1.686-.616 1.934-1.455l2.018-.616v2.647l-2.95 1.273c-.319-.21-.7-.335-1.112-.335a2.024 2.024 0 0 0 0 4.047c.996 0 1.821-.723 1.988-1.67l2.074-.897v2.418h25.415c1.032 1.802 2.819 2.734 5.528 2.734 2.712 0 4.499-.932 5.532-2.734h25.455V88.115H296.5M251.017 76.788c-5.136 0-9.3.799-9.3 1.784 0 .987 4.164 1.784 9.3 1.784 5.136 0 9.3-.797 9.3-1.784 0-.985-4.164-1.784-9.3-1.784M263.824 65.645l-5.37 3.774-.046.382 1.276.574c.253.126.256.329.127.452l-3.374 2.846-.321-.028-2.388-3.521c-.165-.23-.105-.456.183-.504l1.604-.261v-.406l-4.158-5.873h-.684l-4.156 5.873v.406l1.604.261c.287.048.347.275.183.504l-2.39 3.521-.32.028-3.15-2.846c-.128-.123-.125-.326.125-.452l1.278-.574-.047-.382-5.592-3.774-.453.178 3.284 10.033c1.666-.75 5.494-1.276 9.976-1.297 4.484.021 8.312.548 9.978 1.297l3.284-10.033-.453-.178M267.699 144.064c-5.139 0-9.302.799-9.302 1.784s4.163 1.784 9.302 1.784c5.134 0 9.298-.799 9.298-1.784s-4.164-1.784-9.298-1.784M280.503 132.921l-5.37 3.774-.045.382 1.276.574c.252.125.255.329.127.452l-3.374 2.846-.32-.029-2.389-3.521c-.164-.228-.105-.456.184-.504l1.603-.262v-.404l-4.156-5.874h-.686l-4.156 5.874v.404l1.604.262c.288.048.348.276.183.504l-2.39 3.521-.32.03-3.15-2.847c-.128-.123-.125-.327.125-.452l1.278-.574-.047-.382-5.59-3.774-.454.178 3.283 10.033c1.666-.75 5.494-1.276 9.977-1.297 4.483.021 8.31.548 9.977 1.297l3.283-10.033-.453-.178M284.337 76.788c-5.136 0-9.3.799-9.3 1.784 0 .987 4.164 1.784 9.3 1.784 5.136 0 9.299-.797 9.299-1.784 0-.985-4.163-1.784-9.299-1.784M297.143 65.645l-5.368 3.774-.048.382 1.276.574c.253.126.256.329.126.452l-3.372 2.846-.32-.028-2.388-3.521c-.165-.23-.106-.456.182-.504l1.604-.261v-.406l-4.158-5.873h-.682l-4.158 5.873v.406l1.606.261c.285.048.345.275.181.504l-2.39 3.521-.32.028-3.149-2.884c-.129-.122-.128-.325.124-.452l1.278-.536-.048-.382-5.591-3.774-.453.178 3.284 10.033c1.665-.75 5.493-1.276 9.976-1.297 4.484.021 8.312.548 9.978 1.297l3.283-10.033-.453-.178" fill="#fff"/><path d="M246.121 94.315c0 .629.156.75.495.75.61 0 1.227-.673 1.227-1.928 0-1.521-.772-1.946-1.374-1.946-.164 0-.254.022-.305.05-.036.014-.043.178-.043.354zm.348-3.479c.871 0 1.594.17 2.067.63.333.32.61.843.61 1.453 0 1.764-1.338 2.521-2.975 2.521h-1.827v-.276c.517-.043.573-.092.573-.857v-2.338c0-.764-.056-.814-.517-.856v-.277h2.07M251.079 92.961c0 1.283.481 2.218 1.176 2.218.609 0 .941-.588.941-1.871 0-1.423-.51-2.21-1.119-2.21-.545 0-.998.623-.998 1.863zm3.436.122c0 1.516-1.035 2.464-2.395 2.464-1.43 0-2.357-1.043-2.357-2.346 0-1.146.764-2.47 2.457-2.47 1.295 0 2.295.949 2.295 2.352M260.77 90.836v.277c-.54.05-.569.078-.547.822l.07 2.372c.022.786.035.808.544.857v.276h-2.216v-.276c.532-.05.554-.07.546-.857l-.02-2.494h-.031l-1.365 3.55h-.382l-1.297-3.3h-.015l-.049 1.572c-.021.609-.013.948.015 1.166.028.264.184.328.644.363v.276h-1.75v-.276c.342-.03.475-.099.518-.363.036-.218.077-.593.113-1.238l.077-1.431c.05-.89-.006-.97-.566-1.019v-.277h1.665l1.24 2.805 1.084-2.805h1.721M263.068 94.307c0 .765.057.814.545.857v.276h-2.293v-.276c.488-.043.544-.092.544-.857v-2.338c0-.764-.056-.814-.544-.856v-.277h2.293v.277c-.488.042-.545.092-.545.856v2.338M251.663 103.988h-.608l-2.62-3.343h-.016v1.303c0 .744.029 1.133.057 1.353.036.248.227.34.693.362v.276h-1.762v-.276c.312-.015.494-.114.532-.362.026-.22.056-.609.056-1.353v-1.303c0-.524-.015-.617-.158-.814-.105-.15-.281-.198-.536-.22v-.276h1.564l2.358 2.94h.014v-.95c0-.744-.028-1.133-.056-1.352-.036-.248-.228-.34-.693-.362v-.276h1.804v.276c-.352.014-.537.114-.572.362-.028.219-.057.608-.057 1.352v2.663M254.53 103.988c-.487-1.275-1.153-3.024-1.409-3.69-.232-.609-.374-.645-.714-.687v-.276h2.288v.276l-.242.029c-.261.028-.261.092-.184.34.127.395.687 1.792.951 2.485.219-.601.67-1.954.784-2.286.15-.434.107-.511-.212-.546l-.212-.022v-.276h1.713v.276c-.404.05-.502.086-.78.73-.041.099-.905 2.203-1.436 3.647h-.546M257.725 102.48c.15.41.567 1.197 1.262 1.197.368 0 .65-.242.65-.702 0-.418-.274-.651-.708-.85l-.105-.05c-.581-.268-1.24-.636-1.24-1.394 0-.8.581-1.453 1.693-1.453.219 0 .446.028.652.087.162.041.275.069.367.098.03.276.079.623.156 1.104l-.312.05c-.155-.467-.403-.97-.964-.97a.604.604 0 0 0-.616.616c0 .354.277.56.73.766l.155.07c.654.298 1.212.659 1.212 1.487 0 .872-.701 1.508-1.798 1.508a2.58 2.58 0 0 1-.766-.12 4.126 4.126 0 0 1-.445-.17c-.057-.326-.148-.707-.235-1.182l.312-.092M248.513 111.304c0 .764.056.813.544.857v.276h-2.293v-.276c.488-.044.545-.093.545-.857v-2.339c0-.764-.057-.813-.545-.856v-.276h2.293v.276c-.488.043-.544.092-.544.856v2.339M251.319 111.396c0 .368.013.544.14.608.114.057.276.064.496.064.226 0 .532-.02.68-.205.113-.134.233-.326.348-.702l.304.051c-.043.27-.191 1.005-.255 1.225h-3.513v-.276c.537-.044.594-.093.594-.857v-2.339c0-.764-.057-.813-.53-.856v-.276h2.302v.276c-.51.043-.566.092-.566.856v2.431M255.27 111.396c0 .368.014.544.142.608.113.057.275.064.495.064.226 0 .532-.02.68-.205.113-.134.233-.326.348-.702l.304.051c-.042.27-.191 1.005-.255 1.225h-3.513v-.276c.537-.044.594-.093.594-.857v-2.339c0-.764-.057-.813-.53-.856v-.276h2.301v.276c-.51.043-.565.092-.565.856v2.431M258.655 112.487c-.49-1.275-1.155-3.024-1.41-3.691-.234-.608-.374-.644-.716-.687v-.276h2.288v.276l-.241.028c-.261.028-.261.092-.184.342.128.396.687 1.792.95 2.485.218-.603.671-1.955.786-2.288.148-.432.105-.51-.213-.544l-.212-.023v-.276h1.713v.276c-.404.05-.503.086-.779.731-.042.097-.906 2.201-1.437 3.647h-.545M277.677 90.836v.277c-.538.05-.566.078-.546.822l.072 2.372c.02.786.033.808.544.857v.276h-2.216v-.276c.53-.05.553-.07.545-.857l-.02-2.494h-.03l-1.366 3.55h-.383l-1.296-3.3h-.014l-.05 1.572c-.022.609-.014.948.015 1.166.027.264.183.328.644.363v.276h-1.75v-.276c.34-.03.475-.099.517-.363.037-.218.078-.593.113-1.238l.079-1.431c.049-.89-.007-.97-.567-1.019v-.277h1.664l1.24 2.805 1.084-2.805h1.721M279.977 94.307c0 .765.058.814.546.857v.276h-2.295v-.276c.49-.043.545-.092.545-.857v-2.338c0-.764-.056-.814-.545-.856v-.277h2.295v.277c-.488.042-.546.092-.546.856v2.338M285.247 95.49h-.61l-2.62-3.343h-.014v1.302c0 .744.029 1.134.057 1.352.036.25.225.342.695.363v.276h-1.763v-.276c.31-.015.495-.113.53-.363.029-.218.055-.608.055-1.352v-1.302c0-.523-.013-.616-.154-.815-.107-.148-.284-.197-.538-.219v-.277h1.564l2.359 2.94h.015v-.95c0-.743-.03-1.131-.058-1.353-.036-.246-.226-.338-.694-.36v-.277h1.806v.277c-.353.014-.54.114-.573.36-.028.222-.057.61-.057 1.354v2.662M287.308 93.627h.907l-.447-1.354h-.021zm.899 1.537l.213-.03c.261-.033.276-.105.184-.36l-.256-.722h-1.161l-.212.68c-.092.305-.092.375.233.41l.205.022v.276h-1.649v-.276c.36-.05.467-.079.701-.673l1.418-3.662.488-.098.48 1.338c.306.843.609 1.679.878 2.402.227.614.355.65.703.693v.276h-2.225v-.276M277.62 102.805c0 .764.057.815.652.858v.276h-2.479v-.276c.567-.043.623-.094.623-.858v-3.102h-.12c-.473 0-.665.086-.78.213-.083.107-.17.29-.261.687h-.298c.03-.595.071-1.083.086-1.444h.218c.108.161.179.176.37.176h2.824c.185 0 .22-.043.333-.176h.22c.008.297.044.898.077 1.422l-.31.022c-.107-.424-.184-.608-.29-.73-.121-.128-.356-.17-.694-.17h-.171v3.102M281.33 102.805c0 .764.055.815.545.858v.276h-2.295v-.276c.488-.043.544-.094.544-.858v-2.337c0-.765-.056-.815-.544-.857v-.276h2.295v.276c-.49.042-.546.092-.546.857v2.337M283.783 101.459c0 1.282.481 2.218 1.174 2.218.611 0 .943-.589.943-1.87 0-1.424-.51-2.21-1.12-2.21-.544 0-.997.623-.997 1.862zm3.436.121c0 1.516-1.036 2.464-2.394 2.464-1.432 0-2.36-1.041-2.36-2.344 0-1.147.764-2.472 2.458-2.472 1.297 0 2.296.95 2.296 2.352M279.712 107.833v.276c-.54.05-.567.079-.547.823l.071 2.372c.021.785.036.808.545.857v.276h-2.217v-.276c.532-.049.553-.072.547-.857l-.022-2.493h-.029l-1.367 3.548h-.381l-1.297-3.3H275l-.05 1.573c-.02.608-.013.948.015 1.167.03.262.184.326.646.362v.276h-1.751v-.276c.341-.029.475-.1.517-.362.036-.219.078-.595.114-1.239l.077-1.43c.05-.893-.007-.971-.567-1.02v-.277h1.666l1.24 2.804 1.084-2.804h1.721M280.807 108.965c0-.764-.056-.813-.53-.856v-.276h3.356c.007.122.043.638.079 1.168l-.312.022c-.07-.347-.15-.544-.263-.658-.112-.121-.348-.164-.722-.164h-.12c-.27 0-.283 0-.283.248v1.367h.353c.61 0 .631-.043.702-.58h.312v1.67h-.312c-.071-.622-.092-.665-.702-.665h-.353v1.155c0 .368.013.544.141.608.115.057.276.064.496.064.283 0 .595-.043.751-.212.12-.127.24-.388.347-.73l.312.05a9.552 9.552 0 0 1-.248 1.261h-3.604v-.276c.544-.044.6-.093.6-.857v-2.339M285.645 110.624h.907l-.447-1.353h-.021zm.9 1.537l.212-.029c.262-.035.276-.107.184-.361l-.256-.722h-1.16l-.213.68c-.092.304-.092.375.233.411l.206.021v.276h-1.65v-.276c.36-.049.468-.078.702-.674l1.417-3.66.488-.1.48 1.338c.307.844.61 1.679.879 2.403.226.615.354.65.702.693v.276h-2.224v-.276" fill="#0f1f47"/><path d="M261.31 169.415a1.853 1.853 0 1 1-3.705 0 1.853 1.853 0 0 1 3.706 0M280.093 172.496a1.851 1.851 0 1 1-3.702.001 1.851 1.851 0 0 1 3.702-.001M208.119 68.41zM285.945 34.937zM315.833 71.741zM330.236 131.976zM269.477 38.641a1.851 1.851 0 1 1-3.702 0 1.851 1.851 0 0 1 3.702 0M313.555 55.979a1.852 1.852 0 0 1-3.702-.158 1.852 1.852 0 1 1 3.701.157M220.664 135.484c.71 1.024 1.07 2.12 1.068 3.255-.003 1.294-.436 2.344-2.75 3.948l-6.689 4.766-1.232-1.772s6.852-4.878 6.964-4.956c1.182-.816 1.686-1.413 1.688-2.349 0-.593-.217-1.24-.646-1.856-.67-.965-1.528-1.273-2.287-1.275-.687 0-1.428.482-2.744 1.4l-6.29 4.267-1.207-1.739 5.984-4.054c1.665-1.17 2.992-1.972 4.224-1.97 1.798.003 3.11 1.174 3.917 2.335M199.29 122.425l12.726-4.461.704 1.928-7.28 8.893 9.199-3.638.685 1.877-12.577 4.83-.703-1.927 7.315-8.904-9.383 3.282-.685-1.88M197.388 112.295l13.319-1.976.314 2.133-13.318 1.975-.315-2.132M196.993 96.237l.052-2.234 13.291 5.401-.093 2.217-13.65 4.071.015-2.239 11.067-3.101-10.682-4.115M206.752 70.193c.79-1.436 1.352-1.98 2.187-1.976.309 0 .698.078 1.092.294.504.28.89.745 1.033 1.245.056.195.081.388.079.581-.007.8-.452 1.604-.92 2.446l-.275.498-3.793-2.037zm2.395-4.08c-1.903.003-2.783 1.092-3.998 3.287l-1.581 2.833 11.861 6.436 1.024-1.852-4.929-2.689.288-.533c.83-1.5 1.116-1.728 3.232-1.55l3.841.342 1.098-1.991-4.427-.377c-.89-.083-1.592-.148-2.16.017a2.25 2.25 0 0 0-.636.325c.05-.241.141-.474.144-.718a3.435 3.435 0 0 0-.165-1.098c-.258-.79-.822-1.43-1.675-1.904-.636-.35-1.273-.529-1.917-.528M223.883 47.085l1.714-1.308 8.171 10.702-1.713 1.308-8.172-10.702M231.277 41.835l8.71-4.534.849 1.634-3.39 1.765 5.369 10.31-1.912.995-5.368-10.309-3.408 1.775-.85-1.636M253.004 33.205l2.272-.633-1.83 9.008 1.48 5.115-2.053.592-1.446-5.076-6.392-6.671 2.212-.641 4.601 4.793 1.156-6.487M294.088 51.612l6.837-11.599 6.432 3.788-.934 1.588-4.594-2.706-1.89 3.209 4.324 2.547-.915 1.553-4.324-2.548-3.093 5.253-1.843-1.085M328.685 81.607l4.902-5.867.764 2.323-3.651 4.177 5.423 1.217.718 2.188-7.417-1.794-5.27 6.314-.75-2.282 3.977-4.636-5.946-1.356-.724-2.21 7.974 1.926M324.835 94.836l13.422-1.095.608 7.444-1.838.15-.432-5.314-3.712.303.406 5.001-1.794.147-.41-5.001-6.076.494-.174-2.129M331.83 117.101c-2.62 0-5.685-1.429-5.685-4.073 0-.957.332-2.244 1.518-3.104.798-.581 1.837-.89 3.001-.89 1.336 0 3.744.377 5.008 2.12.435.6.657 1.295.655 2.04 0 1.031-.422 2.257-1.527 3.058-.783.567-1.812.85-2.97.85zm-1.06-10.26c-1.555 0-2.986.42-4.115 1.242-2.034 1.472-2.403 3.588-2.403 4.825 0 4.552 4.277 6.372 7.49 6.372 1.542.003 2.954-.417 4.067-1.224 2.268-1.643 2.392-4.11 2.392-4.905 0-3.972-3.652-6.31-7.43-6.31M320.859 72.99c-1.208 0-2.3-.507-3.052-1.695a3.567 3.567 0 0 1-.574-1.918c-.006-1.521.958-3.084 2.723-4.206 1.17-.742 2.317-1.106 3.344-1.102 1.297 0 2.355.572 3.06 1.684.416.655.605 1.354.605 2.051 0 1.487-.941 2.944-2.646 4.025-1.198.759-2.402 1.16-3.46 1.16zm2.096-10.97c-1.36 0-2.81.432-4.207 1.317-2.587 1.643-3.53 3.992-3.53 5.708 0 1.111.306 2.202.94 3.202 1.437 2.266 3.591 2.82 5.047 2.813 1.391-.007 2.856-.467 4.239-1.345 1.667-1.056 3.519-3.019 3.519-5.676 0-1.104-.315-2.19-.951-3.195-1.179-1.857-3.025-2.824-5.057-2.824M285.528 46.296a3.65 3.65 0 0 1-3.17-1.913c-.38-.696-.55-1.542-.55-2.415 0-2.412 1.607-5.795 4.541-5.795 1.647 0 3.716 1.227 3.716 4.271 0 1.941-1.366 5.852-4.537 5.852zm.693-12.008c-2.806 0-5.249 1.89-6.234 5.247-.219.744-.358 1.484-.358 2.198 0 1.346.227 2.41.776 3.416 1.247 2.279 3.527 3.055 5.26 3.055.978 0 1.922-.224 2.786-.696 2.272-1.243 3.772-4.125 3.772-6.885 0-1.198-.232-2.327-.764-3.292-1.094-1.987-3.119-3.043-5.238-3.043M211.643 83.119l1.808.51-2.042 7.396-13.029-3.572 2.225-7.482 1.771.501-1.635 5.39 3.592.987 1.387-4.897 1.732.492-1.38 4.881 4.064 1.116 1.507-5.322M215.059 54.988c1.872-2.096 3.784-1.952 3.784-1.952l.326 1.776s-1.474.048-2.629 1.341c-.503.564-.756 1.154-.756 1.682 0 .437.17.818.512 1.124.933.83 2.527-.094 3.525-.494.767-.317 1.856-.761 2.947-.761.813 0 1.653.23 2.423.917.896.802 1.345 1.806 1.345 2.862 0 1.144-.444 2.16-1.339 3.161-1.717 1.924-4.026 2.133-4.026 2.133l-.459-1.801c1.361-.315 2.39-.837 3.015-1.539.492-.549.733-1.165.733-1.706 0-.508-.212-.982-.628-1.354-.336-.3-.747-.408-1.192-.398-.865 0-1.901.494-2.756.85-1.636.675-3.361 1.22-4.905-.16-.787-.701-1.204-1.584-1.204-2.565 0-1.036.409-2.136 1.284-3.116M329.21 132.25c-.609.002-1.64-.349-2.029-1.353a2.057 2.057 0 0 1-.136-.774c.007-.736.356-1.503.715-2.308l.23-.519 3.88 1.744-.429 1.04c-.725 1.645-1.194 2.168-2.232 2.17zm-7.95-7.985l5.088 2.303-.25.573c-.694 1.567-.96 1.822-3.082 1.831l-3.855.003-.92 2.078 4.444-.014c.9 0 1.6.001 2.148-.21a2.15 2.15 0 0 0 .567-.333c-.01.116-.05.228-.052.343-.004.494.088.985.273 1.414.608 1.423 2.268 2.119 3.482 2.116 2.142-.002 2.961-1.284 4.002-3.641l1.251-2.885-12.243-5.515-.853 1.937M318.967 147.14c-1.071 0-2.075-.412-3.12-1.247-1.06-.846-2.183-2.165-2.183-3.848 0-1.169.635-2.284 1.61-3.508l.893-1.117 7.689 6.137-.587.736c-1.429 1.79-2.402 2.847-4.302 2.847zm-4.799-10.137c-1.396 1.748-2.455 3.31-2.455 5.33 0 1.714.779 3.663 2.747 5.235 1.305 1.043 2.781 1.608 4.303 1.608 1.873 0 3.376-.563 5.708-3.487l2.128-2.674-10.523-8.402-1.908 2.39" fill="#fff"/><path d="M312.916 162.616c-12.53 4.433-24.228 4.13-34.204 1.9.327-4.456 2.168-9.219 4.99-10.104 21.974-6.816 37.98-27.304 37.98-51.45 0-29.702-24.21-53.865-53.965-53.865-29.757 0-53.965 24.163-53.965 53.864 0 16.523 7.717 32.218 20.708 42.395a18.268 18.268 0 0 0-7.619 6.279 39.259 39.259 0 0 1-2.813-2.088l-.49.492c.587.709 1.498 1.646 2.594 2.696a17.883 17.883 0 0 0-2.525 9.172c0 .521.034 1.034.077 1.545-19.333-14.09-30.82-36.49-30.82-60.49 0-41.273 33.58-74.849 74.853-74.849 41.274 0 74.852 33.576 74.852 74.848 0 23.64-10.808 45.359-29.653 59.655zm-43.424 17.668c-10.343 0-23.25-3.516-32.12-8.748-2.688-1.585-5.89-4.533-5.89-9.575 0-1.36.266-2.658.738-3.853 3.31 2.737 6.732 5.303 8.879 6.477.493.271.778.403 1.353.403a2.499 2.499 0 0 0 2.493-2.504c0-1.057-.572-1.915-1.52-2.328-1.833-.803-5.673-2.39-9.806-4.532 1.91-2.523 4.922-4.161 8.314-4.161 1.551 0 3.044.332 4.436.989l2.835 1.652c9.013 5.505 32.201 19.623 60.199 11.865-10.627 9.59-23.716 14.315-39.911 14.315zm8.864 6.3c-2.844 0-5.177 2.013-5.177 5.103 0 3.022 2.365 5.101 5.177 5.101.428 0 .836-.072 1.232-.176-.593 4.277-5.575 9.065-12 11.216-6.375-2.132-11.355-6.956-12.013-11.21.393.1.8.17 1.225.17 3.067 0 5.176-2.147 5.176-5.101 0-2.818-2.212-5.028-5.065-5.091.87-1.592 1.705-3.283 2.322-5.099 3.536.615 7.019.952 10.259.952 2.655 0 5.233-.144 7.752-.4.333 1.46.83 2.986 1.413 4.562-.101-.006-.198-.027-.301-.027zm-36.587-40.605c5.32 0 10.299 2.729 13.219 7.101a51.317 51.317 0 0 1-7.516-2.536l-.008.015-.079-.046a12.7 12.7 0 0 0-5.452-1.216c-4.24 0-7.99 2.079-10.308 5.258a66.049 66.049 0 0 1-2.906-1.703c2.869-4.147 7.645-6.873 13.05-6.873zm21.064 10.618a5.798 5.798 0 0 0-1.562 1.719c-1.952-.947-4.406-2.17-6.008-3.067 2.27.503 5.237 1.14 7.57 1.348zm16.383-1.016c-1.55 2.211-2.472 5.286-2.747 8.398-4.892-1.262-9.33-2.955-13.201-4.72.735-1.426 2.843-2.434 4.45-2.434 3.946 0 7.789-.437 11.498-1.244zm-11.499-.921c-3.305 0-6.56-.319-9.75-.928-3.078-6.035-9.384-9.919-16.198-9.919a18.14 18.14 0 0 0-4.828.67c-13.097-9.732-20.908-25.208-20.908-41.522 0-28.506 23.186-51.698 51.684-51.698 28.498 0 51.683 23.192 51.683 51.698 0 28.507-23.185 51.699-51.683 51.699zm-25.948 23.172c-8.758 0-15.881-7.143-15.881-15.925 0-2.751.699-5.342 1.93-7.603.817.743 1.69 1.513 2.598 2.29a12.511 12.511 0 0 0-1.216 5.367c0 4.778 2.41 8.724 6.968 11.414 2.617 1.544 5.581 2.937 8.72 4.15-1.02.203-2.061.307-3.119.307zm103.082-74.87c0-42.466-34.603-77.014-77.134-77.014-42.532 0-77.134 34.548-77.134 77.013 0 25.476 12.58 49.222 33.657 63.611 2.073 7.717 9.135 13.425 17.53 13.425 2.269 0 4.469-.428 6.56-1.237a77.612 77.612 0 0 0 8.646 2.303c-.817 2.338-2.015 4.556-3.152 6.473l.063-.013c-.022.014-.046.025-.066.04l1.607 1.606c.41-.224.872-.364 1.372-.364a2.882 2.882 0 0 1 2.879 2.882c0 1.586-1.291 2.88-2.879 2.88-1.387 0-2.603-.89-3.24-1.839 0 0-.375 1.295-.375 3.003-.01 5.533 6.028 11.852 14.403 14.517 8.367-2.604 14.407-8.97 14.403-14.508 0-1.905-.376-3.012-.376-3.012-.644.773-1.686 1.839-3.259 1.839a2.884 2.884 0 0 1-2.88-2.88 2.884 2.884 0 0 1 2.88-2.882c.556 0 1.072.167 1.513.442l1.559-1.559.059.015c-.882-2.108-1.526-4.047-1.964-5.908 13.869-1.868 25.57-7.738 34.876-17.52l-.008-.01c19.358-14.709 30.46-37.024 30.46-61.304" fill="#fff"/></svg>
