<svg xmlns="http://www.w3.org/2000/svg" width="300" height="185" viewBox="-50 -5 300 185">
  <path d="M5 90l45 80m100 0H50m145-80l-45 80m0-165H50m100 0H50m0 0L5 90M150 5l45 85m-95 0v60m0-60L45 55m110 0l-55 35m95 0l-95 60M5 90l95 60M50 5l105 50m-5-50L45 55m0 0l5 115M155 55l-5 115" stroke-width="1.5" stroke="#fff" fill="none"/>
  <g fill="red">
    <circle cx="50" cy="170" r="5"/>
    <circle cx="150" cy="170" r="5"/>
    <circle cx="5" cy="90" r="5"/>
    <circle cx="100" cy="150" r="5"/>
    <circle cx="100" cy="90" r="5"/>
    <circle cx="195" cy="90" r="5"/>
    <circle cx="155" cy="55" r="5"/>
    <circle cx="45" cy="55" r="5"/>
    <circle cx="50" cy="5" r="5"/>
    <circle cx="150" cy="5" r="5"/>
    <circle r="5" cy="90" cx="5"/>
  </g>
  <g stroke="#fff" fill="#fff">
    <path d="M65.497 103.069q0-4.799 3.273-8.167 3.273-3.368 7.785-3.368 1.399 0 2.638.508 1.24.508 1.811.953.572.445 1.398 1.271l1.59-2.351q.254-.381.508-.381t.286.158q.063.128.063.604v7.532q0 .508-.063.635-.064.127-.445.127-.318 0-.381-.095-.064-.095-.128-.445-.476-3.432-2.383-5.466-1.907-2.065-4.544-2.065-.763 0-1.62.19-.827.16-2.066.827-1.208.635-2.161 1.716-.922 1.08-1.621 3.114-.667 2.034-.667 4.735 0 2.67.667 4.735.7 2.033 1.62 3.114.954 1.049 2.162 1.716 1.239.635 2.097.826.858.159 1.62.159 2.734 0 4.83-1.938 2.098-1.939 2.289-5.212.032-.159.032-.222 0-.064.031-.128.032-.095.096-.127.095-.031.222-.031.413 0 .413.54 0 3.019-2.32 5.56-2.32 2.543-5.974 2.543-4.512 0-7.785-3.337-3.273-3.368-3.273-8.23z" stroke-width=".993"/>
    <path d="M115.15 103.069q0-4.799 3.274-8.167 3.273-3.368 7.785-3.368 1.399 0 2.638.508 1.24.508 1.811.953.572.445 1.398 1.271l1.59-2.351q.254-.381.508-.381t.286.158q.063.128.063.604v7.532q0 .508-.063.635-.064.127-.445.127-.318 0-.381-.095-.064-.095-.128-.445-.476-3.432-2.383-5.466-1.907-2.065-4.544-2.065-.763 0-1.62.19-.827.16-2.066.827-1.208.635-2.161 1.716-.922 1.08-1.621 3.114-.667 2.034-.667 4.735 0 2.67.667 4.735.7 2.033 1.62 3.114.954 1.049 2.162 1.716 1.239.635 2.097.826.858.159 1.62.159 2.734 0 4.83-1.938 2.098-1.939 2.289-5.212.032-.159.032-.222 0-.064.032-.128.031-.095.095-.127.095-.031.222-.031.413 0 .413.54 0 3.019-2.32 5.56-2.32 2.543-5.974 2.543-4.512 0-7.785-3.337-3.273-3.368-3.273-8.23z" stroke-width=".993"/>
    <path d="M90.641 65.904v-.985h.763q1.716 0 2.097-.286.413-.286.413-1.208V46.678q0-.921-.413-1.207-.381-.286-2.097-.286h-.763V44.2h11.218q3.21 0 5.339 1.78 2.16 1.747 2.16 4.13 0 2.352-2.192 4.068-2.161 1.684-5.053 1.684h-5.37v7.563q0 .922.38 1.208.414.286 2.13.286h.763v.985q-1.112-.095-4.703-.095-3.56 0-4.672.095zm6.006-10.868h4.386q1.43 0 2.447-.381 1.048-.414 1.525-.89.477-.509.73-1.303.287-.795.319-1.24.031-.444.031-1.112 0-.699-.031-1.144-.032-.445-.318-1.239-.254-.794-.731-1.271-.477-.509-1.525-.89-1.017-.381-2.447-.381h-2.829q-1.08 0-1.334.222-.223.223-.223 1.049z" stroke-width=".993"/>
  </g>
  <!--  scale(h/90) translateX(90/h(195 + 45/85*80 - (h/85*45) - 62.5*h/90) translateY(90/h(170 - 100h/90))-->
  <a href="https://britishcombinatorial.wordpress.com" target="_blank">
    <g transform=" scale(0.66667) translate(245.882, 155)" opacity="0.75">
      <g fill="none" stroke="#fff" stroke-width="2">
        <path d="M 10 100 L 115 100"/>
        <path d="M 10 100 L 62.5 10"/>
        <path d="M 10 100 L 88.64588 54.8265"/>
        <path d="M 62.5 10 L 62.5 100"/>
        <path d="M 62.5 10 L 115 100"/>
        <path d="M 115 100 L 36.35412 54.8265"/>
      </g>

      <g fill="red">
        <circle cx="62.5" cy="10" r="10"/>
        <circle cx="62.5" cy="100" r="10"/>
        <circle cx="10" cy="100" r="10"/>
        <circle cx="88.64588" cy="54.8265" r="10"/>
      </g>

      <g fill="white" stroke="red" stroke-width="4">
        <circle cx="62.5" cy="69.8456" r="10"/>
        <circle cx="115" cy="100" r="10"/>
        <circle cx="36.35412" cy="54.8265" r="10"/>
      </g>

      <g fill="white">
        <circle cx="62.5" cy="69.8456" r="10"/>
        <circle cx="115" cy="100" r="10"/>
        <circle cx="36.35412" cy="54.8265" r="10"/>
      </g>

      <g fill="red" stroke="none">
        <path
          d="m 41.804954, 57.710499 q 0,0.672 -0.224,1.306667 -0.224,0.634667 -0.728,1.250667 -0.485334,0.616 -1.474667,0.989333 -0.989334,0.373334 -2.352,0.373334 h -6.122667 v -13.608001 h 6.066667 q 1.269333,0 2.184,0.373333 0.933333,0.373333 1.381333,0.970667 0.466667,0.578667 0.672,1.138667 0.205334,0.56 0.205334,1.101333 0,0.877333 -0.429334,1.512 -0.429333,0.634667 -1.437333,1.288 2.258667,1.325334 2.258667,3.304 z m -8.101334,-7.354667 v 3.08 h 3.042667 q 1.978666,0 1.978666,-1.530666 0,-1.549334 -1.978666,-1.549334 z m 0,5.413334 v 3.528 h 3.341333 q 2.072,0 2.072,-1.754667 0,-1.773333 -2.072,-1.773333 z"/>

        <path
          d="m 118.2575,97.703823 q -0.52267,-2.445334 -2.912,-2.445334 -1.66133,0 -2.59467,1.269334 -0.93333,1.269333 -0.93333,3.527997 0,2.22134 0.896,3.472 0.91467,1.25067 2.53867,1.25067 1.30666,0 2.09066,-0.70933 0.784,-0.70934 0.91467,-2.016 h 2.72533 q -0.13066,2.33333 -1.69866,3.71466 -1.568,1.36267 -4.10667,1.36267 -2.83733,0 -4.49867,-1.904 -1.66133,-1.92267 -1.66133,-5.208 0,-3.304001 1.68,-5.226668 1.68,-1.922666 4.55467,-1.922666 2.408,0 3.93866,1.288 1.54934,1.288 1.736,3.546667 z" />

        <path
          d="m 65.757501,67.549432 q -0.522667,-2.445333 -2.912,-2.445333 -1.661334,0 -2.594667,1.269333 -0.933333,1.269334 -0.933333,3.528001 0,2.221333 0.896,3.472 0.914666,1.250667 2.538666,1.250667 1.306667,0 2.090667,-0.709334 0.784,-0.709333 0.914667,-2.016 h 2.725334 q -0.130667,2.333334 -1.698667,3.714667 -1.568,1.362667 -4.106667,1.362667 -2.837334,0 -4.498667,-1.904 -1.661334,-1.922667 -1.661334,-5.208001 0,-3.304 1.68,-5.226667 1.680001,-1.922667 4.554667,-1.922667 2.408001,0 3.938667,1.288001 1.549334,1.288 1.736001,3.546666 z" />
      </g>
    </g>
  </a>
</svg>
