<svg xmlns="http://www.w3.org/2000/svg" width="200" height="175">
  <path d="M5 90l45 80m100 0H50m145-80l-45 80m0-165H50m100 0H50m0 0L5 90M150 5l45 85m-95 0v60m0-60L45 55m110 0l-55 35m95 0l-95 60M5 90l95 60M50 5l105 50m-5-50L45 55m0 0l5 115M155 55l-5 115" stroke-width="1.5" stroke="#000" fill="none"/>
  <g fill="red">
    <circle cx="50" cy="170" r="5"/>
    <circle cx="150" cy="170" r="5"/>
    <circle cx="5" cy="90" r="5"/>
    <circle cx="100" cy="150" r="5"/>
    <circle cx="100" cy="90" r="5"/>
    <circle cx="195" cy="90" r="5"/>
    <circle cx="155" cy="55" r="5"/>
    <circle cx="45" cy="55" r="5"/>
    <circle cx="50" cy="5" r="5"/>
    <circle cx="150" cy="5" r="5"/>
    <circle r="5" cy="90" cx="5"/>
  </g>
  <g stroke="#000" fill="#000">
    <path d="M65.497 103.069q0-4.799 3.273-8.167 3.273-3.368 7.785-3.368 1.399 0 2.638.508 1.24.508 1.811.953.572.445 1.398 1.271l1.59-2.351q.254-.381.508-.381t.286.158q.063.128.063.604v7.532q0 .508-.063.635-.064.127-.445.127-.318 0-.381-.095-.064-.095-.128-.445-.476-3.432-2.383-5.466-1.907-2.065-4.544-2.065-.763 0-1.62.19-.827.16-2.066.827-1.208.635-2.161 1.716-.922 1.08-1.621 3.114-.667 2.034-.667 4.735 0 2.67.667 4.735.7 2.033 1.62 3.114.954 1.049 2.162 1.716 1.239.635 2.097.826.858.159 1.62.159 2.734 0 4.83-1.938 2.098-1.939 2.289-5.212.032-.159.032-.222 0-.064.031-.128.032-.095.096-.127.095-.031.222-.031.413 0 .413.54 0 3.019-2.32 5.56-2.32 2.543-5.974 2.543-4.512 0-7.785-3.337-3.273-3.368-3.273-8.23z" stroke-width=".993"/>
    <path d="M115.15 103.069q0-4.799 3.274-8.167 3.273-3.368 7.785-3.368 1.399 0 2.638.508 1.24.508 1.811.953.572.445 1.398 1.271l1.59-2.351q.254-.381.508-.381t.286.158q.063.128.063.604v7.532q0 .508-.063.635-.064.127-.445.127-.318 0-.381-.095-.064-.095-.128-.445-.476-3.432-2.383-5.466-1.907-2.065-4.544-2.065-.763 0-1.62.19-.827.16-2.066.827-1.208.635-2.161 1.716-.922 1.08-1.621 3.114-.667 2.034-.667 4.735 0 2.67.667 4.735.7 2.033 1.62 3.114.954 1.049 2.162 1.716 1.239.635 2.097.826.858.159 1.62.159 2.734 0 4.83-1.938 2.098-1.939 2.289-5.212.032-.159.032-.222 0-.064.032-.128.031-.095.095-.127.095-.031.222-.031.413 0 .413.54 0 3.019-2.32 5.56-2.32 2.543-5.974 2.543-4.512 0-7.785-3.337-3.273-3.368-3.273-8.23z" stroke-width=".993"/>
    <path d="M90.641 65.904v-.985h.763q1.716 0 2.097-.286.413-.286.413-1.208V46.678q0-.921-.413-1.207-.381-.286-2.097-.286h-.763V44.2h11.218q3.21 0 5.339 1.78 2.16 1.747 2.16 4.13 0 2.352-2.192 4.068-2.161 1.684-5.053 1.684h-5.37v7.563q0 .922.38 1.208.414.286 2.13.286h.763v.985q-1.112-.095-4.703-.095-3.56 0-4.672.095zm6.006-10.868h4.386q1.43 0 2.447-.381 1.048-.414 1.525-.89.477-.509.73-1.303.287-.795.319-1.24.031-.444.031-1.112 0-.699-.031-1.144-.032-.445-.318-1.239-.254-.794-.731-1.271-.477-.509-1.525-.89-1.017-.381-2.447-.381h-2.829q-1.08 0-1.334.222-.223.223-.223 1.049z" stroke-width=".993"/>
  </g>
</svg>
